<?xml version="1.0" encoding="UTF-8"?>
<!DOCTYPE svg PUBLIC "-//W3C//DTD SVG 1.1//EN" "http://www.w3.org/Graphics/SVG/1.1/DTD/svg11.dtd">
<!-- Creator: CorelDRAW 2018 (64-Bit Evaluation Version) -->
<svg xmlns="http://www.w3.org/2000/svg" xml:space="preserve" width="1792px" height="1792px" version="1.1" style="shape-rendering:geometricPrecision; text-rendering:geometricPrecision; image-rendering:optimizeQuality; fill-rule:evenodd; clip-rule:evenodd"
viewBox="0 0 264.43 263.96"
 xmlns:xlink="http://www.w3.org/1999/xlink">
 <defs>
  <style type="text/css">
   <![CDATA[
    .fil1 {fill:#00A69C;fill-rule:nonzero}
    .fil0 {fill:#FAAF40;fill-rule:nonzero}
   ]]>
  </style>
 </defs>
 <g id="Layer_x0020_1">
  <metadata id="CorelCorpID_0Corel-Layer"/>
  <path class="fil0" d="M155.28 79.97c-41.58,0 -75.29,33.71 -75.29,75.29 0,41.58 33.71,75.29 75.29,75.29 41.58,0 75.29,-33.71 75.29,-75.29 0,-41.58 -33.71,-75.29 -75.29,-75.29zm0 159.99c-46.78,0 -84.7,-37.92 -84.7,-84.7 0,-46.78 37.92,-84.7 84.7,-84.7 46.78,0 84.7,37.92 84.7,84.7 0,46.78 -37.92,84.7 -84.7,84.7z"/>
  <path class="fil0" d="M155.28 98.79c-31.18,0 -56.47,25.29 -56.47,56.47 0,31.19 25.29,56.47 56.47,56.47 31.19,0 56.46,-25.28 56.46,-56.47 0,-31.18 -25.27,-56.47 -56.46,-56.47zm0 122.35c-36.38,0 -65.88,-29.49 -65.88,-65.88 0,-36.38 29.5,-65.88 65.88,-65.88 36.38,0 65.88,29.5 65.88,65.88 0,36.39 -29.5,65.88 -65.88,65.88z"/>
  <path class="fil0" d="M219.23 223.91c-1.26,0.01 -2.46,-0.48 -3.35,-1.36l-7.38 -7.39c-1.85,-1.85 -1.85,-4.84 0,-6.68 1.84,-1.85 4.83,-1.85 6.68,0l7.39 7.39c1.84,1.83 1.85,4.81 0.02,6.66 0,0 -0.02,0.01 -0.02,0.02 -0.89,0.88 -2.09,1.37 -3.34,1.36z"/>
  <path class="fil0" d="M226.75 220.67c-1.48,-0.02 -2.91,0.58 -3.95,1.64 -2.08,2.03 -2.22,5.32 -0.33,7.53l18.12 21.79c2.87,3.45 8.01,3.92 11.46,1.05 0.2,-0.17 0.4,-0.35 0.58,-0.54l0 0c1.65,-1.61 2.52,-3.86 2.4,-6.16 -0.04,-2.34 -1.1,-4.54 -2.91,-6.02l-21.55 -18.02c-1.08,-0.88 -2.43,-1.34 -3.82,-1.27zm20.1 43.29l-0.8 0c-4.93,-0.25 -9.53,-2.53 -12.71,-6.31l-18.11 -21.79c-5.27,-6.4 -4.35,-15.86 2.06,-21.12 5.54,-4.56 13.52,-4.56 19.06,0l21.79 18.11c7.46,6.28 8.42,17.4 2.15,24.87 -0.31,0.36 -0.64,0.72 -0.98,1.06l0 0c-3.3,3.31 -7.79,5.17 -12.46,5.18z"/>
  <path class="fil1" d="M63.33 196.06l-42.77 0c-11.3,0.05 -20.51,-9.07 -20.56,-20.38l0 -120.36c0.02,-5.49 4.48,-9.93 9.98,-9.93l15.9 0c2.6,0 4.7,2.1 4.7,4.71 0,2.6 -2.1,4.7 -4.7,4.7l-15.9 0c-0.3,0 -0.54,0.22 -0.57,0.52l0 120.36c0.05,6.11 5.05,11.02 11.15,10.97l42.77 0c2.6,0 4.71,2.1 4.71,4.7 0,2.6 -2.11,4.71 -4.71,4.71z"/>
  <path class="fil1" d="M247.46 195.4c-2.6,0.36 -5,-1.45 -5.37,-4.05 -0.36,-2.6 1.45,-5 4.05,-5.36 4.61,-1.35 7.82,-5.51 7.95,-10.31l0 -120.36c-0.02,-0.3 -0.27,-0.52 -0.56,-0.52l-15.91 0c-2.59,0 -4.7,-2.1 -4.7,-4.7 0,-2.61 2.11,-4.71 4.7,-4.71l15.91 0c5.49,0 9.95,4.44 9.97,9.93l0 120.36c-0.08,9.04 -6.06,16.96 -14.73,19.53 -0.42,0.13 -0.87,0.2 -1.31,0.19z"/>
  <path class="fil1" d="M132.83 54.8l-2.16 0c-2.6,0 -4.71,-2.1 -4.71,-4.7 0,-2.61 2.11,-4.71 4.71,-4.71l2.16 0c2.6,0 4.71,2.1 4.71,4.71 0,2.6 -2.11,4.7 -4.71,4.7z"/>
  <path class="fil1" d="M57.74 175.77l-0.38 0c-4.71,-0.37 -9.41,-0.56 -15.72,-0.6 -11.25,-0.09 -20.36,-9.17 -20.47,-20.43l0 -114.95c-0.03,-5.38 4.27,-9.8 9.65,-9.93 21.74,-0.7 43.49,1.14 64.79,5.51 12.79,2.67 25.37,6.24 37.65,10.68 1.86,0.67 3.1,2.44 3.1,4.42l0 8.85c0,2.6 -2.11,4.7 -4.7,4.7 -2.6,0 -4.71,-2.1 -4.71,-4.7l0 -5.51c-10.89,-3.86 -22.02,-7 -33.31,-9.41 -20.6,-4.21 -41.62,-5.99 -62.63,-5.32 -0.26,-0.02 -0.49,0.17 -0.52,0.42 0,0.04 0,0.07 0,0.1l0 115.14c0.08,6.11 5.05,11.01 11.15,11.01 6.4,0 11.44,0.24 16.33,0.61 2.6,0.09 4.63,2.27 4.54,4.88 -0.09,2.59 -2.27,4.63 -4.87,4.53l0.1 0z"/>
  <path class="fil1" d="M237.62 105.43c-2.59,0 -4.7,-2.11 -4.7,-4.71l0 -60.93c0.03,-0.26 -0.16,-0.49 -0.42,-0.52 -0.03,0 -0.07,0 -0.1,0 -10.48,-0.33 -20.98,-0.05 -31.43,0.85 -2.6,0.2 -4.88,-1.73 -5.08,-4.33 -0.21,-2.6 1.73,-4.88 4.33,-5.08 10.8,-0.9 21.64,-1.18 32.46,-0.85 5.29,0.26 9.45,4.64 9.41,9.93l0 61.17c-0.11,2.42 -2.05,4.35 -4.47,4.47z"/>
  <path class="fil1" d="M131.75 64.02c-2.6,0 -4.7,-2.1 -4.7,-4.7l0 -8.85c0,-2.6 2.1,-4.71 4.7,-4.71 2.6,0 4.71,2.11 4.71,4.71l0 8.85c0,2.6 -2.11,4.7 -4.71,4.7z"/>
  <path class="fil1" d="M200.59 72.21c-2.6,0 -4.7,-2.11 -4.7,-4.7l0 -57.55c0,-0.2 -0.11,-0.39 -0.29,-0.47 -0.28,0 -0.47,0 -0.51,0 -12.96,6.13 -25.15,13.76 -36.33,22.72 -7.84,6.27 -15.29,13.01 -22.3,20.19l0 6.92c0,2.6 -2.11,4.7 -4.71,4.7 -2.6,0 -4.7,-2.1 -4.7,-4.7l0 -8.85c-0.01,-1.23 0.46,-2.41 1.31,-3.29 7.7,-7.97 15.9,-15.44 24.57,-22.35 11.75,-9.45 24.58,-17.49 38.2,-23.95 5.06,-2.26 10.99,0 13.25,5.05 0.57,1.27 0.86,2.64 0.87,4.03l0 57.55c0,2.57 -2.08,4.67 -4.66,4.7z"/>
  <path class="fil0" d="M170.83 129.34l-19.14 0c-2.2,0 -3.99,-1.78 -3.99,-3.99 0,-2.2 1.79,-3.98 3.99,-3.98l19.14 0c2.21,0 3.99,1.78 3.99,3.98 0,2.21 -1.78,3.99 -3.99,3.99z"/>
  <path class="fil0" d="M133.35 149.28c-0.52,-0.01 -1.04,-0.12 -1.52,-0.32 -0.48,-0.2 -0.92,-0.48 -1.31,-0.84 -0.73,-0.76 -1.14,-1.77 -1.16,-2.83 0.01,-0.52 0.12,-1.03 0.32,-1.51 0.36,-1.01 1.15,-1.79 2.15,-2.16 1.49,-0.62 3.2,-0.29 4.35,0.84 0.35,0.39 0.64,0.84 0.84,1.32 0.2,0.48 0.31,0.99 0.32,1.51 0,2.21 -1.79,3.99 -3.99,3.99z"/>
  <path class="fil0" d="M177.21 149.28l-31.9 0c-2.2,0 -3.99,-1.78 -3.99,-3.99 0,-2.2 1.79,-3.99 3.99,-3.99l31.9 0c2.2,0 3.99,1.79 3.99,3.99 0,2.21 -1.79,3.99 -3.99,3.99z"/>
  <path class="fil0" d="M133.35 169.22c-2.2,-0.02 -3.98,-1.81 -3.96,-4.01 0.01,-2.2 1.8,-3.98 4.01,-3.97 2.2,0.02 3.97,1.81 3.96,4.01 -0.01,1.06 -0.43,2.07 -1.18,2.81 -0.76,0.73 -1.78,1.14 -2.83,1.16z"/>
  <path class="fil0" d="M177.21 169.22l-31.9 0c-2.2,0 -3.99,-1.79 -3.99,-3.99 0,-2.2 1.79,-3.99 3.99,-3.99l31.9 0c2.2,0 3.99,1.79 3.99,3.99 0,2.2 -1.79,3.99 -3.99,3.99z"/>
  <path class="fil0" d="M133.35 189.15c-1.06,-0.01 -2.07,-0.42 -2.83,-1.15 -0.36,-0.38 -0.65,-0.83 -0.84,-1.32 -0.43,-0.96 -0.43,-2.06 0,-3.03 0.2,-0.48 0.49,-0.93 0.84,-1.31 0.93,-0.98 2.3,-1.42 3.63,-1.16l0.71 0.24c0.25,0.08 0.48,0.2 0.68,0.36l0.64 0.48c0.35,0.38 0.64,0.83 0.84,1.31 0.43,0.97 0.43,2.07 0,3.03 -0.19,0.49 -0.47,0.94 -0.84,1.32 -0.2,0.18 -0.41,0.34 -0.64,0.47 -0.2,0.17 -0.43,0.28 -0.68,0.36l-0.71 0.4 -0.8 0z"/>
  <path class="fil0" d="M177.21 189.15l-31.9 0c-2.2,0 -3.99,-1.78 -3.99,-3.98 0,-2.2 1.79,-3.99 3.99,-3.99l31.9 0c2.2,0 3.99,1.79 3.99,3.99 0,2.2 -1.79,3.98 -3.99,3.98z"/>
 </g>
</svg>
