<?xml version="1.0" encoding="UTF-8"?>
<!DOCTYPE svg PUBLIC "-//W3C//DTD SVG 1.1//EN" "http://www.w3.org/Graphics/SVG/1.1/DTD/svg11.dtd">
<!-- Creator: CorelDRAW 2018 (64-Bit Evaluation Version) -->
<svg xmlns="http://www.w3.org/2000/svg" xml:space="preserve" width="1792px" height="1792px" version="1.1" style="shape-rendering:geometricPrecision; text-rendering:geometricPrecision; image-rendering:optimizeQuality; fill-rule:evenodd; clip-rule:evenodd"
viewBox="0 0 416.57 415.83"
 xmlns:xlink="http://www.w3.org/1999/xlink">
 <defs>
  <style type="text/css">
   <![CDATA[
    .fil1 {fill:#00A69C;fill-rule:nonzero}
    .fil0 {fill:#FAAF40;fill-rule:nonzero}
   ]]>
  </style>
 </defs>
 <g id="Layer_x0020_1">
  <metadata id="CorelCorpID_0Corel-Layer"/>
  <path class="fil0" d="M244.62 125.99c-65.5,0 -118.6,53.1 -118.6,118.6 0,65.51 53.1,118.61 118.6,118.61 65.51,0 118.61,-53.1 118.61,-118.61 0,-65.5 -53.1,-118.6 -118.61,-118.6zm0 252.03c-73.69,0 -133.43,-59.74 -133.43,-133.43 0,-73.69 59.74,-133.43 133.43,-133.43 73.69,0 133.43,59.74 133.43,133.43 0,73.69 -59.74,133.43 -133.43,133.43z"/>
  <path class="fil0" d="M244.62 155.64c-49.13,0 -88.95,39.83 -88.95,88.95 0,49.14 39.82,88.96 88.95,88.96 49.13,0 88.95,-39.82 88.95,-88.96 0,-49.12 -39.82,-88.95 -88.95,-88.95zm0 192.73c-57.32,0 -103.78,-46.46 -103.78,-103.78 0,-57.31 46.46,-103.78 103.78,-103.78 57.32,0 103.78,46.47 103.78,103.78 0,57.32 -46.46,103.78 -103.78,103.78z"/>
  <path class="fil0" d="M345.36 352.75c-1.97,0 -3.86,-0.77 -5.26,-2.15l-11.64 -11.64c-2.91,-2.91 -2.91,-7.63 0,-10.53 2.91,-2.91 7.62,-2.91 10.53,0l11.63 11.64c2.91,2.88 2.93,7.58 0.05,10.49 -0.02,0 -0.03,0.02 -0.05,0.04 -1.4,1.38 -3.29,2.15 -5.26,2.15z"/>
  <path class="fil0" d="M357.22 347.63c-2.34,-0.02 -4.59,0.92 -6.22,2.59 -3.28,3.2 -3.5,8.38 -0.52,11.87l28.53 34.32c4.53,5.44 12.62,6.18 18.06,1.66 0.32,-0.27 0.62,-0.56 0.92,-0.85l0 0c2.59,-2.55 3.96,-6.08 3.78,-9.71 -0.07,-3.69 -1.74,-7.15 -4.6,-9.49l-33.94 -28.39c-1.7,-1.38 -3.83,-2.1 -6.01,-2zm31.65 68.2l-1.26 0c-7.76,-0.4 -15.01,-3.99 -20.01,-9.94l-28.54 -34.32c-8.3,-10.09 -6.84,-25 3.24,-33.28 8.74,-7.18 21.32,-7.18 30.04,0l34.32 28.54c11.75,9.88 13.26,27.41 3.39,39.17 -0.49,0.57 -1,1.13 -1.53,1.67l0 0c-5.21,5.22 -12.28,8.15 -19.65,8.16z"/>
  <path class="fil1" d="M99.77 308.86l-67.38 0c-17.8,0.08 -32.31,-14.29 -32.39,-32.1l0 -189.61c0.04,-8.66 7.06,-15.64 15.71,-15.64l25.06 0c4.09,0 7.41,3.31 7.41,7.41 0,4.1 -3.32,7.41 -7.41,7.41l-25.06 0c-0.45,0 -0.85,0.35 -0.88,0.82l0 189.61c0.08,9.63 7.94,17.35 17.56,17.27l67.38 0c4.1,0 7.42,3.33 7.42,7.42 0,4.09 -3.32,7.41 -7.42,7.41z"/>
  <path class="fil1" d="M389.83 307.82c-4.09,0.58 -7.87,-2.28 -8.44,-6.37 -0.57,-4.09 2.28,-7.88 6.37,-8.45 7.26,-2.12 12.32,-8.68 12.53,-16.24l0 -189.61c-0.04,-0.47 -0.43,-0.82 -0.89,-0.82l-25.06 0c-4.09,0 -7.41,-3.31 -7.41,-7.41 0,-4.1 3.32,-7.41 7.41,-7.41l25.06 0c8.65,0 15.68,6.98 15.71,15.64l0 189.61c-0.12,14.24 -9.54,26.73 -23.2,30.77 -0.67,0.2 -1.37,0.31 -2.08,0.29z"/>
  <path class="fil1" d="M209.26 86.33l-3.41 0c-4.09,0 -7.41,-3.31 -7.41,-7.41 0,-4.1 3.32,-7.41 7.41,-7.41l3.41 0c4.09,0 7.41,3.31 7.41,7.41 0,4.1 -3.32,7.41 -7.41,7.41z"/>
  <path class="fil1" d="M90.95 276.91l-0.59 0c-7.41,-0.59 -14.83,-0.89 -24.76,-0.96 -17.73,-0.13 -32.08,-14.44 -32.24,-32.17l0 -181.09c-0.05,-8.49 6.71,-15.44 15.19,-15.65 34.25,-1.11 68.51,1.79 102.08,8.67 20.14,4.22 39.95,9.84 59.3,16.83 2.93,1.06 4.89,3.85 4.89,6.97l0 13.94c0,4.1 -3.32,7.41 -7.41,7.41 -4.09,0 -7.41,-3.31 -7.41,-7.41l0 -8.68c-17.16,-6.08 -34.69,-11.03 -52.49,-14.83 -32.44,-6.62 -65.56,-9.43 -98.66,-8.37 -0.41,-0.04 -0.77,0.26 -0.82,0.66 0,0.05 0,0.11 0,0.16l0 181.39c0.13,9.61 7.96,17.34 17.57,17.34 10.08,0 18.02,0.37 25.72,0.96 4.1,0.15 7.3,3.58 7.16,7.68 -0.14,4.09 -3.58,7.29 -7.67,7.15l0.14 0z"/>
  <path class="fil1" d="M374.34 166.09c-4.09,0 -7.41,-3.32 -7.41,-7.41l0 -95.99c0.05,-0.42 -0.25,-0.78 -0.66,-0.82 -0.05,-0.01 -0.1,-0.01 -0.16,0 -16.51,-0.53 -33.05,-0.09 -49.51,1.33 -4.09,0.33 -7.68,-2.72 -8.01,-6.82 -0.32,-4.09 2.73,-7.68 6.82,-8.01 17.02,-1.42 34.1,-1.85 51.15,-1.33 8.33,0.4 14.88,7.3 14.83,15.65l0 96.36c-0.19,3.81 -3.24,6.85 -7.05,7.04z"/>
  <path class="fil1" d="M207.56 100.86c-4.09,0 -7.42,-3.31 -7.42,-7.41l0 -13.94c0,-4.1 3.33,-7.41 7.42,-7.41 4.09,0 7.41,3.31 7.41,7.41l0 13.94c0,4.1 -3.32,7.41 -7.41,7.41z"/>
  <path class="fil1" d="M316.01 113.76c-4.1,0 -7.42,-3.32 -7.42,-7.41l0 -90.66c0.01,-0.31 -0.16,-0.61 -0.44,-0.74 -0.45,0 -0.74,0 -0.82,0 -20.4,9.66 -39.62,21.67 -57.22,35.8 -12.36,9.86 -24.09,20.49 -35.14,31.8l0 10.9c0,4.1 -3.32,7.41 -7.41,7.41 -4.09,0 -7.42,-3.31 -7.42,-7.41l0 -13.94c0,-1.93 0.74,-3.8 2.08,-5.19 12.13,-12.56 25.05,-24.32 38.69,-35.21 18.53,-14.88 38.73,-27.55 60.2,-37.73 7.96,-3.56 17.3,0 20.86,7.96 0.89,2 1.36,4.16 1.37,6.35l0 90.66c0,4.05 -3.27,7.36 -7.33,7.41z"/>
  <path class="fil0" d="M220.6 195.6c-9.47,0 -17.15,7.68 -17.15,17.15 0,9.47 7.68,17.15 17.15,17.15 9.47,0 17.15,-7.68 17.15,-17.15 0,-9.47 -7.68,-17.15 -17.15,-17.15zm0 44.1c-14.89,0 -26.95,-12.07 -26.95,-26.95 0,-14.88 12.06,-26.95 26.95,-26.95 14.88,0 26.95,12.07 26.95,26.95 -0.04,14.88 -12.08,26.92 -26.95,26.95z"/>
  <path class="fil0" d="M223.05 225c-1.31,0 -2.55,-0.51 -3.48,-1.42l-9.8 -9.8c-1.92,-1.92 -1.92,-5.04 0,-6.96 1.92,-1.92 5.04,-1.92 6.96,0l5.97 6.03 21.07 -25.29c1.73,-2.08 4.83,-2.37 6.91,-0.63 2.08,1.73 2.37,4.82 0.64,6.9l-24.5 29.4c-0.88,1.06 -2.16,1.7 -3.53,1.77l-0.24 0z"/>
  <path class="fil0" d="M280.89 215.21l-19.6 0c-2.7,0 -4.9,-2.19 -4.9,-4.89 0,-2.71 2.2,-4.9 4.9,-4.9l19.6 0c2.71,0 4.9,2.19 4.9,4.9 0,2.7 -2.19,4.89 -4.9,4.89z"/>
  <path class="fil0" d="M290.69 229.91l-29.4 0c-2.7,0 -4.9,-2.19 -4.9,-4.89 0,-2.71 2.2,-4.9 4.9,-4.9l29.4 0c2.7,0 4.9,2.19 4.9,4.9 0,2.7 -2.2,4.89 -4.9,4.89z"/>
  <path class="fil0" d="M220.6 259.29c-9.47,0 -17.15,7.68 -17.15,17.16 0,9.47 7.68,17.15 17.15,17.15 9.47,0 17.15,-7.68 17.15,-17.15 0,-9.48 -7.68,-17.16 -17.15,-17.16zm0 44.1c-14.89,0 -26.95,-12.06 -26.95,-26.94 0,-14.89 12.06,-26.95 26.95,-26.95 14.88,0 26.95,12.06 26.95,26.95l0 0c-0.04,14.87 -12.08,26.92 -26.95,26.94z"/>
  <path class="fil0" d="M280.73 278.9l-19.6 0c-2.71,0 -4.9,-2.19 -4.9,-4.89 0,-2.71 2.19,-4.9 4.9,-4.9l19.6 0c2.7,0 4.9,2.19 4.9,4.9 0,2.7 -2.2,4.89 -4.9,4.89z"/>
  <path class="fil0" d="M290.53 293.6l-29.4 0c-2.71,0 -4.9,-2.19 -4.9,-4.9 0,-2.7 2.19,-4.9 4.9,-4.9l29.4 0c2.7,0 4.9,2.2 4.9,4.9 0,2.71 -2.2,4.9 -4.9,4.9z"/>
 </g>
</svg>
