<svg id="svg" version="1.1" xmlns="http://www.w3.org/2000/svg" xmlns:xlink="http://www.w3.org/1999/xlink" width="400" height="437.3333333333333" viewBox="0, 0, 400,437.3333333333333"><g id="svgg"><path id="path0" d="M209.200 45.489 C 209.200 45.992,210.343 46.990,210.612 46.721 C 210.718 46.615,210.444 46.202,210.002 45.802 C 209.561 45.403,209.200 45.262,209.200 45.489 M189.309 47.042 C 189.465 47.198,189.417 47.538,189.203 47.797 C 188.935 48.120,188.993 48.267,189.389 48.267 C 189.706 48.267,189.882 48.132,189.780 47.967 C 189.678 47.803,189.812 47.596,190.077 47.508 C 190.361 47.413,190.244 47.226,189.792 47.052 C 189.370 46.890,189.152 46.886,189.309 47.042 M218.571 50.629 C 218.917 50.974,219.200 51.454,219.200 51.695 C 219.200 51.936,219.305 52.029,219.432 51.901 C 219.756 51.577,218.864 50.000,218.357 50.000 C 218.129 50.000,218.226 50.283,218.571 50.629 M175.700 55.300 C 175.755 55.575,175.545 55.745,175.232 55.677 C 174.763 55.576,174.754 55.663,175.181 56.177 C 175.806 56.930,176.034 56.969,175.900 56.300 C 175.845 56.025,176.055 55.855,176.368 55.923 C 176.837 56.024,176.846 55.937,176.419 55.423 C 175.794 54.670,175.566 54.631,175.700 55.300 M245.325 65.926 C 245.020 66.118,245.045 66.345,245.408 66.682 C 245.816 67.061,245.975 67.042,246.147 66.595 C 246.406 65.919,245.941 65.541,245.325 65.926 M272.964 112.200 C 272.963 115.940,273.023 117.524,273.097 115.720 C 273.171 113.915,273.172 110.855,273.098 108.920 C 273.025 106.984,272.964 108.460,272.964 112.200 M259.193 121.987 C 259.419 122.410,259.828 122.890,260.102 123.055 C 260.499 123.293,260.499 123.229,260.103 122.740 C 259.830 122.403,259.703 122.030,259.821 121.913 C 259.938 121.795,259.753 121.591,259.408 121.458 C 258.897 121.262,258.857 121.360,259.193 121.987 M267.600 127.010 C 267.600 127.032,268.163 127.579,268.852 128.225 C 269.910 129.218,270.031 129.261,269.638 128.500 C 269.382 128.005,268.953 127.597,268.686 127.594 C 268.380 127.590,268.420 127.449,268.795 127.212 C 269.263 126.916,269.198 126.850,268.495 126.903 C 268.003 126.940,267.600 126.988,267.600 127.010 M100.782 146.834 C 100.536 147.293,100.440 147.773,100.568 147.901 C 100.695 148.029,100.800 147.936,100.800 147.695 C 100.800 147.454,101.083 146.974,101.429 146.629 C 101.774 146.283,101.871 146.000,101.643 146.000 C 101.415 146.000,101.027 146.375,100.782 146.834 M90.600 179.200 C 90.259 179.860,90.069 180.400,90.179 180.400 C 90.289 180.400,90.659 179.860,91.000 179.200 C 91.341 178.540,91.531 178.000,91.421 178.000 C 91.311 178.000,90.941 178.540,90.600 179.200 M89.372 191.330 C 89.260 191.622,89.222 193.557,89.287 195.630 L 89.406 199.400 89.603 195.099 C 89.798 190.838,89.765 190.304,89.372 191.330 M155.600 196.320 C 155.600 196.584,155.825 196.804,156.100 196.809 C 156.375 196.814,156.150 197.167,155.600 197.593 C 154.765 198.240,154.732 198.333,155.400 198.156 C 155.840 198.039,156.552 197.462,156.981 196.872 C 157.446 196.234,157.515 195.999,157.152 196.290 C 156.684 196.666,156.431 196.671,156.070 196.310 C 155.710 195.950,155.600 195.952,155.600 196.320 M146.042 202.149 C 145.155 203.218,145.944 204.024,146.932 203.058 C 147.475 202.528,147.656 202.088,147.405 201.906 C 146.821 201.483,146.556 201.530,146.042 202.149 M141.131 205.202 C 140.576 205.813,140.558 205.975,141.026 206.155 C 141.340 206.275,141.548 206.156,141.495 205.886 C 141.443 205.619,141.619 205.443,141.886 205.495 C 142.166 205.550,142.275 205.339,142.143 204.995 C 142.017 204.668,141.889 204.415,141.857 204.433 C 141.826 204.452,141.499 204.798,141.131 205.202 M133.150 208.600 C 133.123 208.710,133.078 208.987,133.050 209.215 C 133.023 209.443,132.730 209.800,132.400 210.008 C 132.042 210.235,131.992 210.390,132.276 210.394 C 132.788 210.400,133.330 209.712,133.453 208.900 C 133.525 208.430,133.258 208.167,133.150 208.600 M271.403 209.995 C 271.260 210.227,271.432 210.286,271.819 210.137 C 272.396 209.916,272.414 209.989,271.960 210.716 C 271.674 211.174,271.296 211.459,271.120 211.351 C 270.944 211.242,270.800 211.343,270.800 211.576 C 270.800 212.267,271.401 212.064,272.352 211.051 C 273.136 210.216,273.165 210.072,272.589 209.851 C 271.736 209.524,271.691 209.529,271.403 209.995 M89.342 223.400 C 89.341 225.380,89.408 226.240,89.492 225.312 C 89.576 224.384,89.577 222.764,89.495 221.712 C 89.412 220.660,89.343 221.420,89.342 223.400 M291.019 248.313 C 290.530 248.993,290.469 249.214,290.855 248.903 C 291.195 248.630,291.554 248.488,291.653 248.586 C 291.752 248.685,291.859 248.413,291.891 247.983 C 291.965 247.000,291.961 247.001,291.019 248.313 M202.576 251.387 C 202.149 251.710,201.980 251.975,202.200 251.975 C 202.420 251.975,202.949 251.710,203.376 251.387 C 203.804 251.064,203.973 250.800,203.753 250.800 C 203.533 250.800,203.004 251.064,202.576 251.387 M276.186 256.561 C 275.568 257.013,275.563 257.067,276.147 257.067 C 276.506 257.067,276.800 256.897,276.800 256.691 C 276.800 256.484,277.064 256.416,277.387 256.540 C 277.710 256.664,278.058 256.630,278.159 256.466 C 278.476 255.953,276.914 256.029,276.186 256.561 M272.183 259.227 C 272.038 259.462,271.622 259.542,271.260 259.404 C 270.743 259.207,270.705 259.258,271.083 259.639 C 271.448 260.007,271.701 260.014,272.120 259.667 C 272.424 259.414,272.821 259.340,273.001 259.503 C 273.181 259.667,273.199 259.575,273.041 259.300 C 272.689 258.689,272.525 258.675,272.183 259.227 M170.746 268.816 C 169.740 269.946,169.694 270.325,170.640 269.694 C 171.045 269.424,172.175 267.580,171.914 267.616 C 171.851 267.624,171.326 268.164,170.746 268.816 M169.467 268.267 C 168.981 268.753,169.190 269.179,169.800 268.945 C 170.130 268.818,170.400 268.554,170.400 268.357 C 170.400 267.938,169.849 267.884,169.467 268.267 M132.540 276.306 C 132.288 276.468,132.018 277.049,131.940 277.597 C 131.835 278.348,131.503 278.646,130.600 278.801 C 129.421 279.003,129.398 279.053,129.281 281.704 C 129.183 283.942,128.996 284.568,128.181 285.382 C 127.524 286.039,127.206 286.799,127.218 287.682 L 127.235 289.000 127.812 287.400 C 128.129 286.520,128.391 285.755,128.394 285.700 C 128.397 285.645,128.559 285.600,128.753 285.600 C 128.947 285.600,128.865 286.275,128.570 287.100 C 127.911 288.948,127.747 313.200,128.394 313.200 C 128.642 313.200,128.831 308.603,128.903 300.800 L 129.017 288.400 129.009 300.900 L 129.000 313.400 127.919 313.358 C 127.325 313.336,126.851 313.426,126.867 313.558 C 126.882 313.691,126.873 314.295,126.847 314.900 L 126.800 316.000 122.800 316.000 L 118.800 316.000 118.753 305.900 C 118.727 300.345,118.728 295.661,118.756 295.491 C 118.886 294.689,116.349 294.332,112.000 294.539 C 106.592 294.797,105.817 294.921,105.750 295.538 C 105.722 295.792,105.678 296.250,105.650 296.555 C 105.623 296.861,104.984 297.227,104.231 297.368 L 102.861 297.625 102.817 305.306 C 102.773 313.024,102.635 313.786,101.285 313.795 C 100.908 313.798,100.600 314.070,100.600 314.400 C 100.600 315.969,100.244 316.000,82.429 316.000 L 65.200 316.000 65.200 308.000 L 65.200 300.000 64.025 300.000 C 62.992 300.000,62.836 299.843,62.725 298.700 C 62.615 297.557,62.443 297.385,61.300 297.275 C 60.173 297.166,60.000 297.001,60.000 296.029 C 60.000 295.000,59.850 294.888,58.144 294.654 C 55.762 294.328,49.671 294.326,48.045 294.651 L 46.790 294.902 46.895 309.351 L 47.000 323.800 48.073 323.924 C 48.892 324.019,49.208 324.327,49.405 325.224 C 49.619 326.198,49.864 326.400,50.832 326.400 C 51.660 326.400,52.013 326.604,52.046 327.100 C 52.072 327.485,52.117 328.070,52.146 328.400 C 52.187 328.856,52.849 329.028,54.900 329.118 C 57.569 329.235,57.600 329.249,57.600 330.368 C 57.600 332.010,57.450 332.000,83.161 332.000 C 104.071 332.000,106.311 331.938,107.177 331.331 C 107.711 330.957,107.994 330.886,107.818 331.171 C 107.569 331.574,107.682 331.584,108.360 331.221 C 108.831 330.969,109.436 330.411,109.704 329.982 C 110.329 328.982,114.406 328.844,115.196 329.796 C 115.468 330.123,115.868 330.281,116.085 330.147 C 116.309 330.009,116.289 330.261,116.039 330.727 C 115.490 331.754,115.075 331.705,124.200 331.692 C 134.194 331.677,134.400 331.642,134.400 329.951 C 134.400 328.468,139.834 328.871,140.135 330.376 C 140.415 331.777,139.472 331.647,151.000 331.869 C 160.324 332.048,163.803 331.853,163.384 331.174 C 163.257 330.968,163.343 330.800,163.576 330.800 C 163.809 330.800,164.000 330.440,164.000 330.000 C 164.000 329.272,164.267 329.200,166.975 329.200 L 169.951 329.200 169.875 330.300 C 169.784 331.636,169.625 331.606,178.000 331.867 C 185.642 332.106,187.761 331.860,187.476 330.769 C 187.365 330.346,187.438 330.100,187.637 330.223 C 187.837 330.346,188.000 330.167,188.000 329.824 C 188.000 329.323,188.512 329.200,190.600 329.200 C 192.030 329.200,193.179 329.065,193.153 328.900 C 192.859 327.041,193.230 326.400,194.600 326.400 L 196.000 326.400 196.000 323.800 C 196.000 322.011,196.156 321.186,196.500 321.154 C 196.775 321.128,197.258 321.083,197.574 321.054 C 199.144 320.906,199.231 303.120,197.662 302.950 C 197.408 302.923,196.930 302.877,196.600 302.850 C 196.153 302.813,196.000 302.289,196.000 300.800 C 196.000 298.613,195.063 297.200,193.613 297.200 C 193.074 297.200,192.898 297.009,193.057 296.595 C 193.786 294.695,192.997 294.606,175.400 294.609 C 159.200 294.612,159.081 294.623,158.787 296.233 C 158.636 297.062,158.373 297.365,157.878 297.280 C 157.170 297.159,155.941 298.094,156.040 298.679 C 156.448 301.081,155.950 302.800,154.847 302.800 C 153.323 302.800,153.212 303.307,153.205 310.300 L 153.200 316.000 149.200 316.000 L 145.200 316.000 145.200 296.000 L 145.200 276.000 139.100 276.006 C 135.745 276.009,132.793 276.144,132.540 276.306 M273.690 276.470 C 273.420 276.740,273.200 277.270,273.200 277.648 C 273.200 278.088,272.766 278.432,272.000 278.600 C 271.036 278.812,270.798 279.074,270.789 279.932 C 270.781 280.663,270.372 281.301,269.489 281.955 L 268.200 282.910 268.343 294.155 C 268.421 300.340,268.358 307.785,268.202 310.700 L 267.918 316.000 250.559 316.000 L 233.200 316.000 233.154 308.700 C 233.097 299.643,233.163 300.208,232.154 300.157 C 231.045 300.101,230.328 299.640,230.619 299.169 C 230.898 298.718,230.467 297.200,230.076 297.255 C 228.676 297.455,228.000 297.125,228.000 296.243 C 228.000 294.747,223.661 294.038,217.844 294.583 L 214.800 294.868 214.800 309.234 C 214.800 317.135,214.935 323.581,215.100 323.557 C 216.098 323.413,217.167 324.191,217.277 325.141 C 217.378 326.012,217.630 326.222,218.700 326.325 C 219.890 326.440,220.000 326.567,220.000 327.825 C 220.000 329.173,220.897 329.568,223.259 329.261 C 223.401 329.243,223.434 329.549,223.331 329.942 C 222.848 331.790,223.005 331.802,248.361 331.770 C 272.577 331.740,273.716 331.712,273.368 331.148 C 273.183 330.849,274.565 329.200,275.000 329.200 C 275.416 329.200,275.176 329.967,274.571 330.571 C 274.226 330.917,274.140 331.200,274.380 331.200 C 274.620 331.200,275.025 330.743,275.280 330.184 C 275.897 328.829,281.905 328.787,281.673 330.140 C 281.584 330.662,281.702 330.787,282.073 330.563 C 282.498 330.308,282.504 330.365,282.106 330.857 C 281.410 331.717,281.391 331.715,293.100 331.743 C 303.875 331.768,304.966 331.678,305.054 330.761 C 305.083 330.452,305.128 329.975,305.154 329.700 C 305.186 329.357,306.002 329.200,307.755 329.200 L 310.311 329.200 310.574 327.800 C 310.822 326.475,311.400 326.116,312.900 326.353 C 313.065 326.379,313.179 326.265,313.153 326.100 C 312.800 323.868,313.274 321.200,314.024 321.200 C 314.477 321.200,314.737 321.022,314.603 320.805 C 314.457 320.569,314.638 320.516,315.049 320.674 C 315.578 320.877,315.679 320.782,315.482 320.269 C 315.341 319.901,315.354 319.600,315.513 319.600 C 315.671 319.600,315.800 314.380,315.800 308.000 C 315.800 301.620,315.685 296.400,315.544 296.400 C 315.404 296.400,315.314 296.085,315.344 295.700 C 315.409 294.892,315.151 294.843,309.278 294.538 L 305.155 294.324 305.278 293.062 C 305.356 292.254,305.595 291.841,305.941 291.914 C 307.686 292.281,307.959 291.713,307.878 287.880 L 307.800 284.200 306.500 284.075 C 305.546 283.983,305.200 283.752,305.200 283.207 C 305.200 281.876,304.731 281.200,303.807 281.200 C 303.128 281.200,302.842 280.911,302.670 280.049 C 302.391 278.657,299.619 278.116,295.456 278.641 C 294.105 278.812,292.820 278.963,292.600 278.977 C 292.380 278.992,292.196 279.442,292.192 279.978 C 292.185 280.741,291.898 281.027,290.877 281.292 C 290.159 281.478,289.647 281.758,289.739 281.915 C 290.063 282.467,289.218 284.000,288.589 284.000 C 288.239 284.000,288.040 284.141,288.147 284.314 C 288.254 284.487,287.994 284.629,287.571 284.629 C 286.870 284.629,286.796 284.300,286.754 281.014 C 286.728 279.026,286.683 277.130,286.654 276.800 C 286.582 275.995,274.472 275.688,273.690 276.470 M319.067 276.267 C 318.273 277.060,318.791 323.543,319.596 323.799 C 320.034 323.938,320.574 323.939,320.796 323.802 C 321.018 323.665,321.223 323.923,321.250 324.376 C 321.278 324.829,321.322 325.425,321.350 325.700 C 321.378 325.975,321.985 326.256,322.700 326.325 C 323.890 326.440,324.000 326.567,324.000 327.825 C 324.000 329.112,324.084 329.200,325.312 329.200 C 326.405 329.200,326.701 329.402,327.081 330.409 C 327.439 331.358,327.780 331.619,328.669 331.625 C 333.351 331.656,334.800 332.032,334.800 333.217 C 334.800 334.211,334.613 334.399,333.400 334.626 L 332.000 334.889 332.000 338.645 L 332.000 342.400 333.400 342.400 C 334.733 342.400,334.800 342.467,334.800 343.800 C 334.800 345.089,334.895 345.200,336.000 345.200 C 336.976 345.200,337.201 345.368,337.206 346.100 C 337.209 346.595,337.344 347.202,337.506 347.449 C 337.887 348.030,345.200 348.205,345.200 347.633 C 345.200 347.409,345.472 347.330,345.805 347.457 C 346.648 347.781,347.664 346.833,347.393 345.977 C 347.269 345.587,347.355 345.152,347.584 345.010 C 347.813 344.869,348.000 344.223,348.000 343.576 C 348.000 342.495,348.115 342.400,349.420 342.400 L 350.840 342.400 350.770 338.663 C 350.695 334.615,350.056 332.433,348.919 332.343 C 348.209 332.287,353.150 331.598,354.492 331.566 C 354.873 331.557,355.306 331.353,355.454 331.113 C 355.625 330.836,355.518 330.783,355.162 330.968 C 354.853 331.128,354.915 331.001,355.300 330.686 C 355.685 330.370,356.000 329.907,356.000 329.656 C 356.000 329.389,356.678 329.200,357.636 329.200 C 358.697 329.200,359.505 328.948,359.936 328.481 C 360.301 328.086,360.443 327.996,360.251 328.281 C 360.034 328.604,360.069 328.800,360.343 328.800 C 360.745 328.800,361.108 327.908,361.334 326.366 C 361.434 325.691,363.200 323.808,363.200 324.377 C 363.200 324.585,362.795 325.049,362.300 325.409 C 361.482 326.004,361.472 326.051,362.190 325.928 C 363.841 325.645,363.962 324.536,363.990 309.362 L 364.018 294.904 362.759 294.652 C 360.019 294.104,350.757 294.605,350.787 295.300 C 350.861 296.997,350.759 297.153,349.500 297.275 C 348.222 297.398,348.198 297.438,348.086 299.600 C 347.914 302.893,347.880 302.984,346.796 302.992 C 345.650 303.001,345.741 302.418,345.659 310.300 L 345.600 316.000 341.400 316.000 L 337.200 316.000 337.200 298.827 C 337.200 280.435,337.171 280.182,335.204 281.398 C 334.982 281.535,334.778 281.277,334.750 280.824 C 334.723 280.371,334.678 279.782,334.650 279.515 C 334.623 279.248,334.015 278.862,333.300 278.657 C 332.224 278.348,332.000 278.088,332.000 277.142 L 332.000 276.000 325.667 276.000 C 322.183 276.000,319.213 276.120,319.067 276.267 M77.858 282.277 C 78.780 282.457,80.416 284.000,79.686 284.000 C 79.444 284.000,79.134 283.817,78.996 283.593 C 78.858 283.370,78.532 283.323,78.272 283.489 C 78.013 283.656,76.810 283.883,75.600 283.996 C 73.548 284.186,73.391 284.275,73.272 285.316 C 73.172 286.186,72.886 286.483,71.972 286.666 C 71.009 286.858,70.800 287.101,70.800 288.025 C 70.800 289.001,70.629 289.166,69.500 289.275 L 68.200 289.400 68.200 293.192 L 68.200 296.984 69.346 297.072 C 70.751 297.179,70.776 297.203,70.888 298.560 C 70.958 299.400,71.233 299.707,72.068 299.874 C 72.864 300.033,73.225 300.402,73.410 301.246 L 73.664 302.400 77.432 302.400 C 80.176 302.400,81.202 302.264,81.207 301.900 C 81.211 301.625,81.661 300.976,82.207 300.458 C 82.964 299.739,83.200 299.663,83.200 300.135 C 83.200 300.476,82.800 301.035,82.311 301.377 C 81.822 301.720,81.637 302.000,81.899 302.000 C 82.161 302.000,82.748 301.497,83.203 300.882 C 84.401 299.261,86.800 299.502,86.800 301.244 L 86.800 302.400 90.610 302.400 L 94.420 302.400 94.656 301.222 C 94.836 300.322,95.140 300.016,95.946 299.922 C 96.812 299.822,97.022 299.568,97.125 298.500 C 97.217 297.546,97.448 297.200,97.993 297.200 C 99.860 297.200,100.000 296.904,100.000 292.957 L 100.000 289.200 98.600 289.200 C 97.316 289.200,97.200 289.102,97.200 288.019 C 97.200 286.336,96.473 284.962,95.300 284.427 C 94.744 284.174,93.941 283.524,93.515 282.983 C 91.852 280.868,86.800 282.169,86.800 284.713 C 86.800 284.927,86.532 285.324,86.204 285.596 C 85.877 285.868,85.688 286.220,85.786 286.377 C 85.883 286.535,85.566 286.634,85.081 286.599 C 84.442 286.552,84.145 286.214,83.998 285.367 C 83.823 284.357,83.600 284.184,82.330 284.078 C 81.299 283.992,80.672 283.665,80.222 282.978 C 79.744 282.248,79.254 282.014,78.291 282.054 C 77.425 282.091,77.283 282.164,77.858 282.277 M92.623 282.967 C 93.050 283.279,93.261 283.672,93.093 283.841 C 92.924 284.009,92.574 283.934,92.313 283.673 C 91.738 283.098,89.343 283.045,89.000 283.600 C 88.864 283.820,88.556 284.000,88.314 284.000 C 88.073 284.000,88.202 283.640,88.600 283.200 C 89.453 282.258,91.491 282.140,92.623 282.967 M245.817 284.427 C 245.975 284.683,245.784 284.803,245.340 284.727 C 244.822 284.638,244.635 284.810,244.718 285.300 C 244.782 285.685,244.647 286.000,244.418 286.000 C 244.188 286.000,244.000 286.720,244.000 287.600 C 244.000 289.044,243.902 289.200,242.990 289.200 C 241.501 289.200,240.412 295.125,241.556 297.000 C 241.690 297.220,241.800 297.850,241.800 298.400 C 241.800 299.197,242.002 299.402,242.796 299.408 C 243.879 299.416,243.913 299.505,244.088 302.800 L 244.205 305.000 249.979 305.072 C 254.956 305.134,255.829 305.051,256.306 304.472 C 256.610 304.102,256.728 304.053,256.568 304.362 C 256.371 304.740,256.433 304.827,256.757 304.626 C 257.022 304.463,257.209 304.030,257.173 303.665 C 256.896 300.838,257.174 300.053,258.500 299.925 L 259.800 299.800 259.872 294.926 C 259.949 289.720,259.669 288.880,258.002 289.315 C 257.256 289.510,257.200 289.331,257.200 286.763 L 257.200 284.000 251.376 284.000 C 247.352 284.000,245.634 284.132,245.817 284.427 M96.270 285.855 C 96.839 286.711,95.646 287.022,94.908 286.211 C 94.739 286.024,94.825 286.001,95.100 286.159 C 95.375 286.318,95.600 286.257,95.600 286.024 C 95.600 285.791,95.420 285.600,95.200 285.600 C 94.980 285.600,94.800 285.405,94.800 285.167 C 94.800 284.526,95.653 284.925,96.270 285.855 M289.650 292.614 C 289.678 292.936,289.723 293.423,289.750 293.696 C 289.778 293.969,290.340 294.290,291.000 294.410 C 291.864 294.567,292.182 294.837,292.134 295.376 C 292.066 296.145,292.905 297.257,293.479 297.160 C 294.925 296.914,299.603 297.271,299.393 297.611 C 299.254 297.836,298.841 297.971,298.477 297.911 C 297.580 297.761,297.510 298.374,297.325 307.900 L 297.169 316.000 291.984 316.000 L 286.800 316.000 286.800 303.067 C 286.800 295.953,286.908 290.025,287.040 289.894 C 287.366 289.567,289.588 291.882,289.650 292.614 M180.000 312.000 L 180.000 316.000 176.000 316.000 L 172.000 316.000 172.000 312.000 L 172.000 308.000 176.000 308.000 L 180.000 308.000 180.000 312.000 M81.976 337.615 C 81.498 337.910,81.381 340.163,81.287 350.885 C 81.153 366.088,81.184 366.400,82.818 366.400 C 83.902 366.400,84.000 366.516,84.000 367.800 L 84.000 369.200 96.400 369.200 C 103.367 369.200,108.800 369.044,108.800 368.844 C 108.800 368.649,109.115 368.514,109.500 368.544 C 109.968 368.582,110.204 368.309,110.212 367.721 C 110.219 367.238,110.354 366.713,110.512 366.555 C 110.670 366.396,110.800 366.929,110.800 367.738 L 110.800 369.210 129.300 369.105 L 147.800 369.000 147.912 363.700 L 148.023 358.400 149.412 358.400 L 150.800 358.400 150.847 363.500 C 150.873 366.305,150.871 368.742,150.842 368.915 C 150.814 369.088,156.057 369.178,162.495 369.115 L 174.200 369.000 174.570 366.500 C 174.922 364.122,174.995 364.000,176.051 364.000 C 177.134 364.000,177.165 364.062,177.281 366.500 L 177.400 369.000 182.698 369.112 L 187.997 369.223 187.986 358.612 L 187.975 348.000 182.806 348.000 L 177.636 348.000 177.380 349.366 C 177.192 350.366,176.865 350.797,176.162 350.974 C 175.633 351.107,175.200 351.428,175.200 351.688 C 175.200 352.047,175.315 352.045,175.680 351.680 C 175.944 351.416,176.349 351.205,176.580 351.212 C 176.811 351.219,176.685 351.408,176.300 351.632 C 175.915 351.856,175.600 352.331,175.600 352.687 C 175.600 353.042,175.465 353.199,175.300 353.035 C 175.135 352.870,174.871 350.725,174.713 348.268 C 174.382 343.113,174.347 342.836,174.033 342.870 C 172.391 343.047,172.107 342.766,171.866 340.724 C 171.503 337.664,171.094 337.417,166.208 337.302 C 161.169 337.183,161.468 336.825,161.277 343.200 C 161.195 345.950,160.963 348.371,160.764 348.580 C 160.536 348.818,160.400 348.785,160.400 348.492 C 160.400 348.145,157.202 348.024,148.000 348.024 C 139.766 348.024,135.600 348.162,135.600 348.436 C 135.600 348.662,135.435 348.745,135.234 348.621 C 135.033 348.497,134.777 348.621,134.666 348.898 C 134.546 349.195,134.450 349.109,134.432 348.685 C 134.387 347.678,111.037 347.792,110.946 348.800 C 110.917 349.130,110.872 349.788,110.846 350.263 C 110.773 351.632,108.090 350.693,107.921 349.239 L 107.800 348.200 101.200 348.000 L 94.600 347.800 94.549 344.966 C 94.493 341.843,93.954 340.400,92.844 340.400 C 92.368 340.400,91.983 339.950,91.733 339.100 C 91.484 338.255,91.114 337.819,90.675 337.856 C 90.304 337.886,90.000 337.768,90.000 337.593 C 90.000 337.154,82.689 337.174,81.976 337.615 M265.759 337.666 C 265.434 338.192,265.243 340.828,265.220 345.114 C 265.201 348.583,265.152 348.802,264.470 348.437 C 263.381 347.855,241.943 347.861,240.662 348.444 C 240.101 348.700,239.372 349.560,239.042 350.355 C 238.711 351.150,238.432 351.589,238.421 351.332 C 238.409 351.074,237.871 350.747,237.224 350.605 C 236.327 350.408,236.019 350.092,235.924 349.273 L 235.800 348.200 217.400 348.200 L 199.000 348.200 198.893 358.700 L 198.787 369.200 204.649 369.200 C 209.759 369.200,210.582 369.110,211.056 368.500 C 211.567 367.844,211.626 367.842,212.009 368.480 C 212.366 369.075,213.218 369.159,218.809 369.157 L 225.200 369.154 225.200 363.777 L 225.200 358.400 226.600 358.400 L 228.000 358.400 228.000 363.800 L 228.000 369.200 233.120 369.200 C 236.662 369.200,238.406 369.046,238.779 368.700 C 239.210 368.300,239.261 368.300,239.033 368.703 C 238.656 369.371,288.284 369.394,289.088 368.727 C 289.452 368.425,289.600 368.432,289.600 368.751 C 289.600 369.074,293.307 369.200,302.800 369.200 L 316.000 369.200 316.000 367.800 C 316.000 366.314,316.575 365.896,316.901 367.145 C 317.458 369.274,329.288 370.312,331.200 368.400 C 332.518 367.082,332.083 361.239,330.701 361.700 C 329.683 362.039,329.200 360.858,329.200 358.029 C 329.200 355.034,329.230 354.974,330.402 355.601 C 330.926 355.882,331.237 355.863,331.438 355.539 C 331.626 355.235,331.532 355.176,331.162 355.368 C 330.853 355.528,330.915 355.401,331.300 355.086 C 332.039 354.480,332.324 351.200,331.637 351.200 C 331.438 351.200,331.369 350.839,331.485 350.398 C 331.730 349.458,330.977 348.400,330.062 348.400 C 329.582 348.400,329.644 348.556,330.311 349.023 C 330.800 349.365,331.200 349.855,331.200 350.112 C 331.200 350.368,330.670 349.998,330.023 349.289 C 329.312 348.511,328.458 348.000,327.869 348.000 C 326.963 348.000,326.873 347.814,326.615 345.400 L 326.336 342.800 324.868 342.729 C 324.061 342.689,322.500 342.615,321.400 342.562 C 318.927 342.445,316.002 342.752,316.055 343.123 C 316.465 345.986,315.946 348.000,314.800 348.000 C 313.980 348.000,313.600 348.197,313.600 348.624 C 313.600 348.967,313.417 349.134,313.193 348.996 C 312.970 348.858,312.896 348.569,313.029 348.354 C 313.185 348.101,309.110 348.005,301.543 348.081 L 289.816 348.200 289.729 349.346 C 289.524 352.020,289.200 350.638,289.200 347.090 C 289.200 344.977,289.028 343.141,288.817 343.011 C 288.607 342.881,288.527 342.533,288.640 342.239 C 288.880 341.615,287.793 340.400,286.997 340.400 C 286.673 340.400,286.400 339.871,286.325 339.100 C 286.250 338.322,285.999 337.840,285.700 337.900 C 285.425 337.955,285.200 337.839,285.200 337.641 C 285.200 337.444,283.490 337.261,281.400 337.234 C 279.134 337.205,277.600 337.345,277.600 337.580 C 277.600 337.797,277.352 337.880,277.049 337.764 C 276.458 337.537,275.789 339.336,276.211 340.018 C 276.341 340.228,276.279 340.400,276.074 340.400 C 275.868 340.400,275.595 339.877,275.467 339.237 C 275.116 337.482,266.713 336.122,265.759 337.666 M274.571 338.629 C 274.917 338.974,275.195 339.469,275.188 339.729 C 275.181 339.988,274.995 339.891,274.775 339.513 C 274.555 339.135,274.065 338.645,273.687 338.425 C 273.309 338.205,273.212 338.019,273.471 338.012 C 273.731 338.005,274.226 338.283,274.571 338.629 M93.600 341.600 C 93.835 342.040,93.960 342.400,93.876 342.400 C 93.792 342.400,93.398 342.040,93.000 341.600 C 92.602 341.160,92.478 340.800,92.724 340.800 C 92.970 340.800,93.365 341.160,93.600 341.600 M288.025 341.430 C 288.459 341.953,288.450 342.123,287.974 342.424 C 287.209 342.909,286.800 342.892,286.800 342.376 C 286.800 342.143,286.980 342.064,287.200 342.200 C 287.888 342.625,287.636 341.915,286.900 341.357 C 286.279 340.885,286.273 340.824,286.851 340.813 C 287.209 340.806,287.738 341.084,288.025 341.430 M241.408 349.192 C 241.376 349.627,241.197 350.122,241.011 350.292 C 240.824 350.461,240.801 350.375,240.959 350.100 C 241.118 349.825,241.057 349.600,240.824 349.600 C 240.591 349.600,240.400 349.840,240.400 350.133 C 240.400 350.427,240.140 350.667,239.822 350.667 C 238.861 350.667,240.131 348.890,241.433 348.412 C 241.451 348.405,241.440 348.756,241.408 349.192 M100.000 359.167 C 100.000 361.270,98.824 361.965,98.759 359.900 L 98.718 358.600 98.301 359.900 C 97.634 361.981,94.400 361.898,94.400 359.800 L 94.400 358.400 97.200 358.400 C 99.694 358.400,100.000 358.484,100.000 359.167 M126.800 359.800 L 126.800 361.200 124.000 361.200 L 121.200 361.200 121.200 359.800 L 121.200 358.400 124.000 358.400 L 126.800 358.400 126.800 359.800 M211.894 363.900 C 211.812 364.945,211.744 364.090,211.744 362.000 C 211.744 359.910,211.812 359.055,211.894 360.100 C 211.976 361.145,211.976 362.855,211.894 363.900 M305.200 359.800 L 305.200 361.200 302.600 361.200 L 300.000 361.200 300.000 359.800 L 300.000 358.400 302.600 358.400 L 305.200 358.400 305.200 359.800 M318.408 367.010 C 319.181 367.941,318.629 368.117,317.802 367.202 C 317.403 366.761,317.262 366.400,317.489 366.400 C 317.716 366.400,318.130 366.674,318.408 367.010 " stroke="none" fill="#645c5c" fill-rule="evenodd"></path><path id="path1" d="M193.539 45.419 C 193.087 46.669,192.893 46.800,191.493 46.800 C 189.620 46.800,188.400 47.393,188.400 48.303 C 188.400 48.845,188.523 48.802,189.023 48.089 C 189.365 47.600,189.950 47.221,190.323 47.246 C 190.930 47.288,190.927 47.312,190.295 47.477 C 189.893 47.581,189.706 47.863,189.859 48.130 C 190.007 48.389,189.994 48.480,189.831 48.333 C 189.667 48.187,189.179 48.421,188.746 48.854 C 188.282 49.318,187.667 49.548,187.247 49.415 C 186.361 49.134,185.010 50.529,185.339 51.385 C 185.528 51.877,185.217 52.012,183.787 52.060 C 182.804 52.093,181.775 52.138,181.500 52.160 C 180.790 52.217,180.074 52.923,180.246 53.398 C 180.539 54.207,179.738 54.765,178.188 54.830 C 175.725 54.934,175.299 55.142,174.839 56.461 C 174.543 57.310,174.224 57.618,173.805 57.457 C 172.884 57.104,172.042 57.579,172.193 58.366 C 172.426 59.575,171.875 59.917,169.431 60.082 C 167.158 60.236,167.055 60.290,166.905 61.414 C 166.707 62.891,166.891 62.779,164.499 62.883 C 163.377 62.931,162.545 63.111,162.650 63.281 C 162.755 63.451,162.531 63.472,162.151 63.326 C 161.622 63.123,161.521 63.218,161.718 63.731 C 162.130 64.805,161.642 65.495,160.555 65.375 C 159.332 65.241,157.281 66.343,156.972 67.300 C 156.765 67.940,155.591 68.231,154.060 68.021 C 153.763 67.980,153.623 68.113,153.749 68.317 C 154.676 69.817,152.255 71.198,149.330 70.837 C 149.072 70.805,148.729 70.991,148.568 71.251 C 148.374 71.566,148.464 71.626,148.838 71.432 C 149.147 71.272,149.085 71.399,148.700 71.714 C 148.315 72.030,148.000 72.559,148.000 72.889 C 148.000 73.304,147.667 73.453,146.923 73.372 C 145.286 73.192,143.200 74.205,143.200 75.180 C 143.200 75.781,142.941 76.000,142.233 76.000 C 140.584 76.000,140.000 76.423,140.000 77.617 C 140.000 78.602,139.831 78.766,138.700 78.875 C 137.667 78.974,137.391 79.187,137.354 79.913 C 137.297 81.051,137.036 81.317,135.900 81.398 C 135.167 81.450,134.977 81.735,134.876 82.933 C 134.764 84.251,134.655 84.379,133.819 84.169 C 133.276 84.033,132.760 84.141,132.582 84.429 C 132.373 84.768,132.454 84.832,132.838 84.632 C 133.147 84.472,133.073 84.607,132.674 84.933 C 132.275 85.259,131.981 85.768,132.021 86.063 C 132.062 86.358,132.073 96.860,132.047 109.400 L 131.999 132.200 128.133 132.200 L 124.267 132.200 124.107 133.393 C 123.908 134.884,124.185 134.731,121.389 134.893 C 119.189 135.020,118.999 135.106,118.991 135.973 C 118.982 136.923,117.520 137.845,116.763 137.377 C 116.563 137.254,116.400 137.428,116.400 137.764 C 116.400 138.119,116.169 138.286,115.848 138.163 C 115.545 138.047,114.947 138.395,114.521 138.938 C 114.091 139.483,113.221 139.985,112.572 140.060 C 111.220 140.218,110.815 140.640,110.806 141.900 C 110.801 142.639,110.567 142.808,109.500 142.843 C 105.819 142.964,105.800 142.969,105.800 143.867 C 105.800 144.941,105.638 145.107,104.393 145.306 C 102.807 145.560,101.235 146.460,100.981 147.261 C 100.744 148.006,100.384 148.151,99.100 148.021 C 98.715 147.982,98.400 148.152,98.400 148.398 C 98.400 148.645,98.220 148.736,98.000 148.600 C 97.780 148.464,97.600 148.528,97.600 148.743 C 97.600 148.958,97.825 149.224,98.100 149.335 C 98.500 149.496,98.500 149.543,98.100 149.568 C 97.825 149.586,97.600 149.827,97.600 150.104 C 97.600 150.381,97.240 150.832,96.800 151.107 C 96.260 151.444,96.000 151.465,96.000 151.170 C 96.000 149.474,94.999 151.500,94.890 153.419 C 94.730 156.202,94.832 156.084,92.342 156.370 C 92.200 156.387,92.056 161.369,92.023 167.443 C 91.972 176.725,91.862 178.639,91.335 179.443 C 90.570 180.610,89.798 180.724,90.411 179.579 C 90.653 179.128,90.784 178.363,90.702 177.879 C 90.329 175.665,89.647 180.617,89.584 186.000 C 89.092 227.984,89.160 230.400,90.845 230.400 C 91.943 230.400,92.477 232.578,92.047 235.300 C 92.021 235.465,92.225 235.621,92.500 235.646 C 92.775 235.672,93.180 235.734,93.400 235.785 C 93.620 235.836,94.025 235.906,94.300 235.939 C 94.575 235.973,94.800 236.539,94.800 237.200 C 94.800 238.336,94.886 238.400,96.424 238.400 C 97.513 238.400,97.957 238.546,97.772 238.845 C 97.621 239.089,97.746 239.447,98.049 239.639 C 98.448 239.891,98.462 239.989,98.100 239.994 C 97.825 239.997,97.600 240.191,97.600 240.424 C 97.600 240.657,97.780 240.736,98.000 240.600 C 98.220 240.464,98.400 240.504,98.400 240.689 C 98.400 240.875,99.331 241.067,100.470 241.116 C 102.867 241.220,102.900 241.240,102.900 242.576 C 102.900 243.131,103.045 243.496,103.222 243.386 C 103.400 243.277,103.644 243.347,103.765 243.543 C 103.885 243.738,104.822 243.915,105.845 243.936 C 107.966 243.978,107.878 243.936,108.062 245.000 C 108.241 246.037,108.748 246.386,110.086 246.394 C 110.756 246.398,111.335 246.705,111.598 247.196 C 112.066 248.070,113.988 249.200,115.009 249.200 C 115.808 249.200,116.600 249.996,116.600 250.800 C 116.600 251.130,116.960 251.418,117.400 251.441 C 117.840 251.463,118.290 251.525,118.400 251.577 C 118.510 251.630,119.230 251.762,120.000 251.870 C 121.682 252.107,121.577 252.016,121.686 253.330 C 121.734 253.916,121.960 254.375,122.187 254.350 C 124.894 254.056,126.800 254.448,126.806 255.300 C 126.813 256.252,127.317 257.291,127.745 257.234 C 129.928 256.942,132.000 257.276,132.000 257.920 C 132.000 258.316,132.225 258.882,132.500 259.179 C 132.904 259.614,132.893 259.656,132.438 259.397 C 132.066 259.185,131.971 259.229,132.156 259.528 C 132.309 259.777,132.967 259.918,133.618 259.843 C 134.268 259.767,134.800 259.872,134.800 260.076 C 134.800 260.280,134.978 260.337,135.195 260.203 C 135.429 260.058,135.485 260.235,135.330 260.637 C 134.940 261.653,136.267 262.400,138.464 262.400 C 140.025 262.400,140.331 262.514,140.137 263.019 C 140.002 263.373,140.221 263.900,140.650 264.249 C 141.062 264.585,141.147 264.728,140.838 264.568 C 140.469 264.376,140.374 264.435,140.562 264.738 C 140.719 264.992,141.117 265.200,141.447 265.200 C 141.782 265.200,141.927 265.005,141.775 264.760 C 141.578 264.440,141.728 264.440,142.325 264.760 C 142.778 265.002,143.577 265.200,144.102 265.200 C 144.794 265.200,145.213 265.557,145.628 266.500 C 146.080 267.527,146.452 267.811,147.400 267.850 C 150.997 268.000,150.800 267.922,150.800 269.200 L 150.800 270.400 159.620 270.400 C 168.932 270.400,170.249 270.177,171.175 268.447 C 171.460 267.914,171.916 267.742,172.778 267.842 C 174.072 267.993,175.071 266.883,174.643 265.769 C 174.477 265.334,174.847 265.186,176.213 265.140 C 177.196 265.107,178.225 265.062,178.500 265.040 C 179.311 264.975,180.015 264.106,179.772 263.470 C 179.455 262.646,180.034 262.394,182.367 262.341 C 184.479 262.294,185.462 261.659,185.057 260.605 C 184.848 260.060,185.950 259.740,187.300 259.953 C 187.465 259.979,187.600 259.820,187.600 259.600 C 187.600 259.380,187.857 259.200,188.171 259.200 C 188.485 259.200,189.104 258.740,189.546 258.178 C 190.088 257.489,190.788 257.131,191.697 257.080 C 192.883 257.013,193.056 256.862,193.135 255.823 C 193.248 254.335,193.012 254.463,195.829 254.362 C 197.917 254.286,198.247 254.168,198.299 253.478 C 198.384 252.352,198.814 252.039,200.407 251.943 C 201.173 251.896,202.017 251.695,202.282 251.495 C 202.548 251.295,202.981 251.264,203.244 251.427 C 203.548 251.615,203.619 251.554,203.438 251.262 C 203.281 251.008,203.343 250.800,203.576 250.800 C 203.809 250.800,204.000 250.440,204.000 250.000 C 204.000 249.352,204.267 249.200,205.400 249.200 C 206.924 249.200,207.281 249.794,206.001 250.200 C 203.551 250.977,205.443 254.394,208.327 254.398 C 209.452 254.400,209.617 254.517,209.411 255.166 C 209.277 255.588,209.358 256.050,209.590 256.194 C 209.823 256.338,209.902 256.635,209.766 256.854 C 209.631 257.074,209.763 257.220,210.060 257.179 C 211.607 256.967,212.327 257.254,212.558 258.173 C 212.814 259.196,213.763 259.668,215.861 259.816 C 217.549 259.935,217.965 260.246,217.716 261.200 C 217.585 261.699,217.712 262.022,218.053 262.059 C 218.354 262.092,218.870 262.155,219.200 262.200 C 219.530 262.245,220.530 262.308,221.422 262.341 C 222.974 262.397,223.043 262.456,223.022 263.684 L 223.000 264.968 225.389 265.107 C 228.144 265.267,228.100 265.243,228.100 266.583 C 228.100 267.142,228.123 267.612,228.150 267.626 C 228.178 267.641,229.280 267.742,230.600 267.852 C 233.242 268.072,233.610 268.272,233.705 269.539 C 233.770 270.396,233.791 270.398,243.985 270.299 L 254.200 270.200 254.246 269.287 C 254.303 268.154,254.413 268.044,255.625 267.909 C 256.784 267.779,257.186 267.317,257.194 266.100 C 257.200 265.189,257.684 265.081,261.692 265.092 C 262.161 265.094,262.465 264.661,262.636 263.747 C 262.881 262.445,262.954 262.398,264.845 262.350 C 267.782 262.275,267.800 262.268,267.800 261.240 C 267.800 260.174,268.844 259.607,270.332 259.865 C 270.977 259.977,271.173 259.881,270.970 259.552 C 270.781 259.246,270.848 259.182,271.156 259.373 C 271.419 259.536,271.932 259.428,272.294 259.134 C 272.857 258.678,272.904 258.688,272.618 259.200 C 272.340 259.697,272.378 259.711,272.838 259.283 C 273.286 258.866,273.294 258.705,272.878 258.448 C 272.079 257.954,273.155 257.255,274.893 257.138 C 275.694 257.084,276.271 256.915,276.176 256.762 C 275.969 256.426,277.226 255.893,277.524 256.191 C 277.639 256.306,277.493 256.400,277.200 256.400 C 276.907 256.400,276.782 256.516,276.924 256.657 C 277.326 257.059,278.400 255.982,278.400 255.176 C 278.400 254.650,278.757 254.416,279.700 254.325 C 280.783 254.221,281.021 254.017,281.127 253.100 C 281.253 252.001,282.291 251.703,285.232 251.920 C 285.604 251.947,286.087 251.398,286.407 250.583 C 286.899 249.328,287.097 249.200,288.543 249.200 C 289.480 249.200,290.477 248.912,290.962 248.500 C 291.747 247.833,291.760 247.833,291.244 248.500 C 290.886 248.962,290.855 249.200,291.151 249.200 C 291.398 249.200,291.615 249.065,291.633 248.900 C 291.652 248.735,291.712 248.195,291.766 247.700 C 291.907 246.436,292.024 246.378,294.574 246.305 C 296.817 246.241,297.755 245.790,296.832 245.220 C 296.014 244.715,297.441 243.920,299.435 243.771 C 301.500 243.617,302.400 243.064,302.400 241.951 C 302.400 241.381,302.693 241.200,303.620 241.200 C 305.331 241.200,307.144 240.162,307.431 239.019 C 307.578 238.434,307.883 238.134,308.205 238.257 C 309.005 238.564,310.451 237.643,310.375 236.875 C 310.338 236.504,310.341 236.110,310.381 236.000 C 310.422 235.890,310.523 235.285,310.605 234.656 C 310.789 233.249,310.815 233.223,312.130 233.114 L 313.195 233.026 313.098 196.053 L 313.000 159.080 312.017 158.930 C 310.740 158.735,310.484 158.264,310.641 156.404 C 310.725 155.420,310.564 154.702,310.190 154.392 C 309.870 154.126,309.719 153.730,309.854 153.512 C 310.004 153.270,309.781 153.216,309.284 153.373 C 308.353 153.669,308.033 153.311,307.911 151.836 C 307.838 150.949,307.636 150.800,306.513 150.800 C 305.217 150.800,304.955 150.373,305.151 148.585 C 305.176 148.357,304.621 148.126,303.919 148.073 C 302.399 147.957,302.457 148.002,302.268 146.776 C 302.153 146.024,301.881 145.805,301.084 145.821 C 300.516 145.833,300.147 145.686,300.265 145.495 C 300.383 145.303,300.237 145.180,299.940 145.221 C 297.805 145.514,296.956 145.193,296.978 144.103 C 296.999 143.051,296.908 143.001,294.800 142.883 C 291.849 142.718,291.830 142.708,291.814 141.402 C 291.802 140.407,291.635 140.248,290.513 140.163 C 289.668 140.098,288.726 139.578,287.766 138.646 C 286.647 137.559,286.035 137.258,285.152 137.361 C 284.378 137.451,284.000 137.315,284.000 136.948 C 284.000 136.646,283.826 136.400,283.613 136.400 C 283.399 136.400,283.328 136.132,283.454 135.803 C 283.743 135.051,282.438 134.492,282.010 135.184 C 281.790 135.540,281.620 135.557,281.426 135.243 C 281.276 134.999,280.637 134.800,280.007 134.800 C 279.055 134.800,278.785 134.566,278.403 133.409 C 278.151 132.644,277.822 132.036,277.672 132.057 C 275.331 132.384,273.200 131.929,273.194 131.100 C 273.186 129.875,272.654 129.130,271.968 129.382 C 271.250 129.647,270.649 129.246,270.046 128.100 C 269.785 127.605,269.263 127.214,268.886 127.232 C 268.461 127.251,268.392 127.341,268.705 127.466 C 268.982 127.578,269.410 128.059,269.656 128.535 C 270.014 129.227,269.854 129.166,268.852 128.225 C 267.566 127.019,267.378 126.750,267.900 126.867 C 268.166 126.927,269.833 126.666,272.200 126.194 C 273.247 125.986,273.479 96.086,272.441 95.120 C 271.975 94.686,271.923 94.716,272.129 95.300 C 272.264 95.685,272.223 96.000,272.036 96.000 C 271.167 96.000,270.827 94.620,270.652 90.384 C 270.430 85.031,270.310 84.303,269.609 84.070 C 269.280 83.960,269.201 84.077,269.393 84.388 C 269.629 84.770,269.508 84.779,268.848 84.426 C 268.382 84.176,268.000 83.633,268.000 83.219 C 268.000 82.104,267.566 81.174,267.163 81.423 C 266.968 81.543,266.909 81.383,267.030 81.066 C 267.315 80.323,265.353 78.913,263.787 78.735 C 262.929 78.637,262.589 78.378,262.559 77.800 C 262.470 76.058,262.407 76.000,260.597 76.000 C 258.886 76.000,258.819 75.958,259.297 75.188 C 259.891 74.229,259.099 73.463,257.900 73.836 C 257.515 73.956,257.200 73.889,257.200 73.688 C 257.200 73.486,256.633 73.306,255.939 73.286 C 254.583 73.247,253.993 72.672,254.202 71.591 C 254.292 71.124,254.063 70.910,253.466 70.905 C 249.350 70.866,249.200 70.830,249.200 69.880 C 249.200 68.660,248.482 68.000,247.157 68.000 C 246.308 68.000,246.116 67.844,246.265 67.272 C 246.494 66.397,245.446 65.420,244.618 65.738 C 244.292 65.863,243.937 65.821,243.828 65.646 C 243.720 65.470,243.084 65.359,242.416 65.399 C 241.557 65.450,241.186 65.285,241.154 64.836 C 241.128 64.486,241.083 63.930,241.054 63.600 C 241.014 63.155,240.379 62.967,238.605 62.871 C 235.803 62.721,236.091 62.876,235.896 61.416 C 235.763 60.427,235.532 60.222,234.410 60.094 C 233.620 60.004,232.605 59.466,231.909 58.771 C 231.265 58.127,230.527 57.579,230.269 57.554 C 230.011 57.528,229.620 57.466,229.400 57.415 C 229.180 57.364,228.691 57.294,228.313 57.261 C 227.882 57.223,227.710 56.979,227.851 56.610 C 227.976 56.286,227.790 55.733,227.439 55.382 C 226.990 54.933,226.800 54.894,226.800 55.251 C 226.800 55.647,226.693 55.653,226.320 55.280 C 226.056 55.016,225.164 54.800,224.338 54.800 C 222.950 54.800,222.817 54.698,222.584 53.456 C 222.391 52.427,222.130 52.111,221.466 52.105 C 219.578 52.087,219.245 51.972,219.019 51.261 C 218.759 50.439,217.057 49.474,215.754 49.407 C 214.875 49.363,213.181 48.000,214.005 48.000 C 214.790 48.000,214.176 47.003,213.365 46.959 C 211.526 46.861,211.282 46.755,211.076 45.970 C 210.957 45.514,210.486 45.043,210.030 44.924 C 209.573 44.804,209.200 44.556,209.200 44.372 C 209.200 44.188,205.789 44.037,201.619 44.037 L 194.038 44.037 193.539 45.419 M210.620 46.714 C 210.235 47.099,209.200 46.397,209.200 45.751 C 209.200 45.135,209.270 45.140,210.002 45.802 C 210.444 46.202,210.722 46.612,210.620 46.714 M218.325 51.575 C 218.425 51.875,218.275 52.025,217.975 51.925 C 217.686 51.829,217.371 51.514,217.275 51.225 C 217.175 50.925,217.325 50.775,217.625 50.875 C 217.914 50.971,218.229 51.286,218.325 51.575 M200.499 56.900 C 201.631 57.769,203.599 66.764,203.600 71.074 C 203.600 72.655,203.770 74.394,203.977 74.940 C 204.448 76.177,203.983 76.396,200.867 76.410 C 192.663 76.444,191.051 79.427,189.403 97.625 C 188.818 104.093,188.063 108.997,187.709 108.642 C 187.353 108.286,184.941 109.370,182.648 110.915 C 173.160 117.310,159.344 119.705,147.395 117.024 C 144.768 116.435,142.594 115.919,142.563 115.876 C 141.871 114.946,140.733 94.577,141.222 91.880 C 141.862 88.351,147.084 82.400,149.541 82.400 C 149.760 82.400,150.447 81.975,151.069 81.455 C 151.691 80.935,153.010 80.100,154.000 79.600 C 154.990 79.100,156.309 78.265,156.931 77.745 C 157.553 77.225,158.304 76.800,158.600 76.800 C 158.896 76.800,159.676 76.348,160.334 75.795 C 160.991 75.242,162.220 74.504,163.064 74.156 C 163.909 73.808,164.960 73.210,165.400 72.826 C 165.840 72.443,166.830 71.891,167.600 71.600 C 168.370 71.309,169.360 70.761,169.800 70.383 C 170.240 70.005,171.410 69.318,172.400 68.856 C 173.390 68.394,176.360 66.843,179.000 65.410 C 181.640 63.977,185.060 62.178,186.600 61.413 C 188.140 60.647,189.670 59.844,190.000 59.628 C 190.655 59.199,193.895 57.690,195.800 56.926 C 197.387 56.290,199.687 56.277,200.499 56.900 M231.600 59.400 C 232.008 59.891,231.980 60.000,231.449 60.000 C 231.092 60.000,230.800 59.730,230.800 59.400 C 230.800 59.070,230.868 58.800,230.951 58.800 C 231.034 58.800,231.326 59.070,231.600 59.400 M158.800 67.400 C 158.800 67.730,158.530 68.000,158.200 68.000 C 157.575 68.000,157.406 67.527,157.867 67.067 C 158.327 66.606,158.800 66.775,158.800 67.400 M266.000 80.600 C 266.408 81.091,266.380 81.200,265.849 81.200 C 265.492 81.200,265.200 80.930,265.200 80.600 C 265.200 80.270,265.268 80.000,265.351 80.000 C 265.434 80.000,265.726 80.270,266.000 80.600 M204.031 89.900 C 204.047 90.285,204.122 90.915,204.195 91.300 C 204.319 91.946,203.474 92.259,202.237 92.026 C 202.037 91.989,201.725 92.192,201.543 92.479 C 201.342 92.796,201.210 92.256,201.206 91.100 L 201.200 89.200 202.600 89.200 C 203.655 89.200,204.008 89.372,204.031 89.900 M225.200 102.644 C 225.200 102.730,224.570 102.800,223.800 102.800 C 223.030 102.800,222.400 102.656,222.400 102.480 C 222.400 102.304,223.030 102.234,223.800 102.324 C 224.570 102.414,225.200 102.558,225.200 102.644 M255.766 121.149 C 255.439 121.521,254.400 120.755,254.400 120.143 C 254.400 119.530,254.477 119.539,255.148 120.230 C 255.560 120.654,255.838 121.067,255.766 121.149 M259.874 121.751 C 259.758 122.054,259.873 122.531,260.131 122.810 C 260.492 123.201,260.485 123.253,260.102 123.036 C 259.170 122.510,258.689 121.200,259.429 121.200 C 259.822 121.200,260.001 121.421,259.874 121.751 M201.390 131.758 C 201.123 133.840,202.039 134.382,206.184 134.595 C 210.304 134.806,211.023 134.994,212.531 136.255 C 213.328 136.921,214.160 137.200,215.352 137.200 C 216.759 137.200,217.271 137.435,218.400 138.600 C 219.146 139.370,220.083 140.000,220.482 140.000 C 220.881 140.000,221.772 140.540,222.463 141.200 C 223.154 141.860,224.056 142.400,224.469 142.400 C 224.903 142.400,225.381 142.824,225.602 143.405 C 225.812 143.958,226.434 144.615,226.984 144.866 C 227.534 145.116,228.091 145.656,228.221 146.065 C 228.350 146.474,228.984 147.081,229.628 147.415 C 230.439 147.834,230.800 148.322,230.800 148.999 C 230.800 149.761,231.079 150.049,232.065 150.305 C 233.229 150.607,233.333 150.770,233.373 152.367 C 233.409 153.798,233.638 154.287,234.684 155.160 C 235.848 156.132,235.959 156.432,236.037 158.840 C 236.118 161.355,237.758 164.509,238.564 163.703 C 238.842 163.424,238.774 177.649,238.494 178.143 C 238.387 178.331,238.145 178.241,237.956 177.943 C 237.688 177.520,237.611 177.555,237.606 178.100 C 237.603 178.485,237.420 178.800,237.200 178.800 C 236.980 178.800,236.800 179.070,236.800 179.400 C 236.800 179.730,236.655 180.000,236.478 180.000 C 236.301 180.000,236.112 181.382,236.058 183.071 C 236.004 184.759,235.889 186.255,235.803 186.395 C 235.544 186.814,236.498 190.177,236.966 190.494 C 237.205 190.656,236.815 190.791,236.100 190.794 C 234.630 190.801,234.516 190.576,235.462 189.531 C 235.826 189.129,235.929 188.800,235.691 188.800 C 235.160 188.800,234.000 189.918,234.000 190.429 C 234.000 190.633,233.280 190.800,232.400 190.800 C 230.923 190.800,230.799 190.885,230.791 191.900 C 230.785 192.745,230.483 193.139,229.491 193.600 C 228.696 193.970,228.151 194.545,228.072 195.100 C 227.989 195.687,227.669 196.000,227.154 196.000 C 226.696 196.000,226.076 196.501,225.681 197.190 C 225.258 197.928,224.545 198.479,223.800 198.642 C 223.140 198.787,222.086 199.407,221.458 200.020 C 220.829 200.633,219.849 201.252,219.279 201.395 C 218.710 201.538,217.642 202.182,216.908 202.827 C 215.875 203.734,215.183 204.000,213.858 204.000 C 212.488 204.000,211.826 204.272,210.561 205.355 L 208.978 206.710 201.189 206.762 L 193.400 206.814 191.644 205.407 C 190.084 204.158,189.625 204.000,187.544 204.000 C 185.779 204.000,185.200 203.859,185.200 203.429 C 185.200 202.526,184.100 201.658,182.364 201.190 C 181.304 200.905,180.614 200.429,180.318 199.780 C 179.922 198.910,178.889 198.533,177.500 198.753 C 177.335 198.779,177.200 198.386,177.200 197.880 C 177.200 196.773,176.505 196.000,175.510 196.000 C 175.022 196.000,174.702 195.610,174.544 194.822 C 174.367 193.933,174.026 193.581,173.154 193.390 C 172.148 193.169,171.894 192.795,172.034 191.745 C 172.115 191.142,170.843 190.806,168.693 190.861 C 167.425 190.893,166.270 190.803,166.127 190.660 C 165.984 190.517,166.302 190.386,166.833 190.369 C 168.483 190.317,170.852 189.598,169.367 189.601 C 169.165 189.601,169.063 188.593,169.139 187.360 C 169.269 185.283,169.183 185.020,167.968 183.767 L 166.658 182.415 166.580 170.970 C 166.494 158.459,166.650 156.991,168.178 155.878 C 168.899 155.353,169.202 154.760,169.205 153.867 C 169.215 151.609,169.627 150.775,170.852 150.530 C 171.799 150.340,172.000 150.097,172.000 149.141 C 172.000 148.294,172.268 147.861,173.000 147.527 C 173.550 147.277,174.000 146.931,174.000 146.759 C 174.000 146.267,177.723 142.563,178.503 142.278 C 178.890 142.138,179.414 141.567,179.668 141.011 C 179.921 140.455,180.445 140.000,180.831 140.000 C 182.036 140.000,182.800 139.543,182.800 138.821 C 182.800 137.975,184.388 137.200,186.123 137.200 C 187.058 137.200,187.673 136.880,188.377 136.027 C 189.247 134.974,189.655 134.830,192.373 134.611 C 196.737 134.261,198.053 134.010,197.788 133.580 C 197.658 133.371,197.817 133.200,198.139 133.200 C 198.521 133.200,198.655 132.931,198.523 132.427 C 198.360 131.803,198.482 131.696,199.160 131.874 C 199.786 132.037,200.008 131.903,200.032 131.347 C 200.050 130.921,200.150 130.816,200.266 131.102 C 200.377 131.379,200.625 131.508,200.817 131.390 C 201.008 131.271,201.052 130.881,200.915 130.522 C 200.752 130.098,200.822 129.966,201.112 130.146 C 201.360 130.299,201.484 131.019,201.390 131.758 M287.400 139.200 C 288.009 139.873,288.026 140.000,287.509 140.000 C 287.170 140.000,286.799 139.640,286.684 139.200 C 286.569 138.760,286.520 138.400,286.575 138.400 C 286.631 138.400,287.002 138.760,287.400 139.200 M102.800 147.176 C 102.800 147.648,102.020 148.153,101.733 147.867 C 101.447 147.580,101.952 146.800,102.424 146.800 C 102.631 146.800,102.800 146.969,102.800 147.176 M165.694 190.881 C 165.782 191.145,165.580 191.681,165.245 192.072 C 164.579 192.851,164.018 192.411,164.006 191.100 C 163.999 190.303,165.439 190.116,165.694 190.881 M241.298 190.666 C 241.021 190.777,240.921 191.078,241.074 191.334 C 241.287 191.688,241.215 191.688,240.777 191.335 C 240.460 191.080,239.660 190.792,239.000 190.695 C 238.234 190.583,238.524 190.510,239.800 190.492 C 240.900 190.476,241.574 190.554,241.298 190.666 M161.797 193.900 C 161.639 194.285,161.419 194.915,161.308 195.300 C 161.158 195.823,160.688 195.998,159.453 195.994 C 158.244 195.989,157.961 195.884,158.400 195.603 C 158.730 195.391,159.300 195.311,159.666 195.425 C 160.033 195.539,160.466 195.417,160.628 195.154 C 160.814 194.854,160.754 194.781,160.466 194.959 C 160.165 195.145,160.095 195.018,160.260 194.587 C 160.461 194.064,160.579 194.039,160.850 194.466 C 161.092 194.849,161.189 194.746,161.194 194.100 C 161.197 193.605,161.399 193.200,161.643 193.200 C 161.908 193.200,161.970 193.481,161.797 193.900 M156.400 196.449 C 156.400 196.749,156.609 196.724,157.031 196.374 C 157.393 196.074,157.265 196.473,156.731 197.308 C 155.798 198.769,154.703 199.117,151.847 198.859 C 151.214 198.802,151.175 198.888,151.604 199.405 C 152.035 199.924,152.005 199.977,151.410 199.749 C 150.834 199.527,150.757 199.633,150.981 200.339 C 151.144 200.853,151.082 201.200,150.827 201.200 C 150.587 201.200,150.444 200.588,150.500 199.801 C 150.600 198.403,150.602 198.402,152.600 198.392 C 154.346 198.383,157.762 196.838,156.100 196.809 C 155.511 196.798,155.412 196.000,156.000 196.000 C 156.220 196.000,156.400 196.202,156.400 196.449 M250.726 197.900 C 251.071 198.175,252.129 198.400,253.076 198.400 C 254.703 198.400,254.797 198.462,254.746 199.500 C 254.698 200.459,254.669 200.483,254.516 199.689 C 254.420 199.188,254.130 198.805,253.871 198.837 C 253.612 198.869,252.460 198.873,251.312 198.847 L 249.224 198.800 249.278 197.368 C 249.322 196.196,249.402 196.068,249.716 196.668 C 249.927 197.070,250.381 197.625,250.726 197.900 M147.338 201.780 C 146.644 202.082,145.957 202.705,145.811 203.165 C 145.665 203.624,145.359 204.000,145.130 204.000 C 144.902 204.000,144.824 203.715,144.957 203.367 C 145.091 203.019,145.200 202.389,145.200 201.967 C 145.200 201.329,145.485 201.203,146.900 201.216 L 148.600 201.231 147.338 201.780 M260.000 201.800 C 260.000 202.130,259.842 202.400,259.649 202.400 C 259.456 202.400,259.074 202.130,258.800 201.800 C 258.384 201.299,258.442 201.200,259.151 201.200 C 259.639 201.200,260.000 201.455,260.000 201.800 M147.086 202.920 C 146.599 203.426,146.126 203.787,146.036 203.723 C 145.802 203.555,147.258 202.000,147.648 202.000 C 147.826 202.000,147.573 202.414,147.086 202.920 M143.213 204.547 C 142.986 204.774,142.800 205.374,142.800 205.880 C 142.800 206.733,140.188 207.240,137.870 206.837 C 137.689 206.806,137.623 206.920,137.723 207.090 C 137.824 207.261,137.762 207.780,137.586 208.245 C 137.228 209.193,135.733 209.788,135.733 208.983 C 135.733 208.697,135.994 208.576,136.332 208.706 C 136.754 208.868,136.834 208.779,136.604 208.406 C 136.373 208.033,136.430 207.971,136.796 208.198 C 137.188 208.440,137.266 208.258,137.113 207.459 C 136.915 206.422,136.954 206.400,139.027 206.400 C 141.143 206.400,142.400 205.743,142.400 204.638 C 142.400 204.360,142.676 204.133,143.013 204.133 C 143.435 204.133,143.498 204.262,143.213 204.547 M268.200 206.610 C 268.420 206.694,267.664 206.739,266.520 206.711 C 265.376 206.682,264.510 206.545,264.596 206.407 C 264.748 206.160,267.412 206.310,268.200 206.610 M132.518 208.269 C 132.328 208.765,132.425 208.876,132.891 208.697 C 133.545 208.446,133.625 209.003,133.065 209.900 C 132.488 210.824,132.000 210.411,132.000 209.000 C 132.000 208.230,132.174 207.600,132.387 207.600 C 132.601 207.600,132.659 207.901,132.518 208.269 M269.038 208.462 C 269.230 208.772,269.140 208.817,268.762 208.598 C 268.429 208.404,268.337 208.420,268.536 208.636 C 268.884 209.013,269.010 209.032,272.000 209.156 L 273.800 209.231 272.500 209.796 C 271.735 210.129,271.200 210.653,271.200 211.070 C 271.200 211.670,271.295 211.643,271.823 210.889 C 272.165 210.400,272.656 210.000,272.914 210.000 C 274.229 210.000,271.239 211.998,269.700 212.148 L 268.000 212.313 268.000 210.157 C 268.000 208.111,268.409 207.444,269.038 208.462 M267.800 214.400 C 267.952 214.646,267.383 214.780,266.324 214.747 L 264.600 214.695 266.000 214.400 C 266.770 214.238,267.434 214.082,267.476 214.053 C 267.518 214.024,267.664 214.180,267.800 214.400 M254.800 222.000 C 254.800 222.697,254.556 222.791,252.900 222.733 C 251.125 222.670,251.100 222.655,252.522 222.507 C 253.360 222.420,254.144 222.091,254.265 221.775 C 254.575 220.966,254.800 221.061,254.800 222.000 M250.324 222.671 C 249.952 222.769,249.574 223.333,249.484 223.925 C 249.336 224.895,249.314 224.874,249.260 223.700 C 249.209 222.588,249.330 222.407,250.100 222.446 C 250.738 222.479,250.804 222.545,250.324 222.671 M237.492 230.692 C 236.531 230.792,236.081 231.008,236.253 231.286 C 236.417 231.551,236.338 231.609,236.055 231.434 C 235.220 230.918,236.010 230.398,237.524 230.467 L 239.000 230.534 237.492 230.692 M225.200 238.356 C 225.200 238.552,224.570 238.786,223.800 238.876 C 223.030 238.966,222.400 238.907,222.400 238.745 C 222.400 238.583,222.985 238.378,223.700 238.289 C 224.415 238.201,225.045 238.099,225.100 238.064 C 225.155 238.029,225.200 238.160,225.200 238.356 M305.825 239.912 C 305.201 240.510,304.833 240.730,305.007 240.400 C 305.535 239.394,306.516 238.382,306.743 238.610 C 306.861 238.728,306.448 239.314,305.825 239.912 M217.600 243.624 C 217.600 244.123,216.514 244.108,216.203 243.605 C 216.058 243.370,216.237 243.316,216.645 243.473 C 217.147 243.665,217.244 243.594,217.004 243.206 C 216.786 242.854,216.831 242.772,217.138 242.962 C 217.392 243.119,217.600 243.417,217.600 243.624 M113.200 246.767 C 113.200 246.969,113.318 247.464,113.462 247.867 C 113.660 248.418,113.510 248.361,112.862 247.639 C 111.838 246.497,111.817 246.400,112.600 246.400 C 112.930 246.400,113.200 246.565,113.200 246.767 M211.505 246.675 C 211.122 246.775,210.402 246.779,209.905 246.683 C 209.407 246.587,209.720 246.505,210.600 246.501 C 211.480 246.496,211.887 246.575,211.505 246.675 M206.800 251.987 C 206.800 252.879,206.650 253.117,206.200 252.945 C 205.589 252.710,205.383 251.550,205.867 251.067 C 206.438 250.495,206.800 250.852,206.800 251.987 M189.200 257.351 C 189.200 257.434,188.930 257.726,188.600 258.000 C 188.109 258.408,188.000 258.380,188.000 257.849 C 188.000 257.492,188.270 257.200,188.600 257.200 C 188.930 257.200,189.200 257.268,189.200 257.351 M170.400 268.357 C 170.400 268.554,170.130 268.818,169.800 268.945 C 169.190 269.179,168.981 268.753,169.467 268.267 C 169.849 267.884,170.400 267.938,170.400 268.357 M315.770 308.000 C 315.770 312.730,315.828 314.665,315.898 312.300 C 315.969 309.935,315.969 306.065,315.898 303.700 C 315.828 301.335,315.770 303.270,315.770 308.000 M94.501 359.800 C 94.505 360.680,94.587 360.993,94.683 360.495 C 94.779 359.998,94.775 359.278,94.675 358.895 C 94.575 358.513,94.496 358.920,94.501 359.800 " stroke="none" fill="#d22434" fill-rule="evenodd"></path><path id="path2" d="M157.867 67.067 C 157.406 67.527,157.575 68.000,158.200 68.000 C 158.530 68.000,158.800 67.730,158.800 67.400 C 158.800 66.775,158.327 66.606,157.867 67.067 M265.200 80.600 C 265.200 80.930,265.492 81.200,265.849 81.200 C 266.380 81.200,266.408 81.091,266.000 80.600 C 265.726 80.270,265.434 80.000,265.351 80.000 C 265.268 80.000,265.200 80.270,265.200 80.600 M270.800 94.075 C 270.800 95.117,271.814 96.216,271.886 95.252 C 271.919 94.813,271.688 94.239,271.373 93.978 C 270.921 93.602,270.800 93.623,270.800 94.075 M198.093 133.678 C 198.157 133.990,197.903 134.149,197.460 134.073 C 197.016 133.997,196.825 134.117,196.983 134.373 C 197.163 134.665,196.000 134.800,193.319 134.800 C 189.442 134.800,189.378 134.815,188.400 136.000 C 187.674 136.879,187.065 137.200,186.123 137.200 C 184.388 137.200,182.800 137.975,182.800 138.821 C 182.800 139.543,182.036 140.000,180.831 140.000 C 180.445 140.000,179.921 140.455,179.668 141.011 C 179.414 141.567,178.890 142.138,178.503 142.278 C 177.723 142.563,174.000 146.267,174.000 146.759 C 174.000 146.931,173.550 147.277,173.000 147.527 C 172.268 147.861,172.000 148.294,172.000 149.141 C 172.000 150.097,171.799 150.340,170.852 150.530 C 169.636 150.773,169.215 151.610,169.205 153.811 C 169.202 154.637,168.838 155.340,168.060 156.023 C 165.788 158.016,165.784 181.677,168.055 183.852 C 169.029 184.786,169.200 185.262,169.200 187.042 C 169.200 189.864,169.462 190.400,170.843 190.400 C 171.894 190.400,172.000 190.526,172.000 191.768 C 172.000 192.951,172.156 193.171,173.154 193.390 C 174.026 193.581,174.367 193.933,174.544 194.822 C 174.702 195.610,175.022 196.000,175.510 196.000 C 176.425 196.000,177.200 196.751,177.200 197.637 C 177.200 198.344,177.971 198.800,179.169 198.800 C 179.555 198.800,180.072 199.241,180.318 199.780 C 180.614 200.429,181.304 200.905,182.364 201.190 C 184.100 201.658,185.200 202.526,185.200 203.429 C 185.200 203.859,185.783 204.000,187.569 204.000 C 189.571 204.000,190.141 204.171,191.244 205.100 L 192.550 206.200 200.775 206.400 L 209.000 206.600 210.572 205.300 C 211.805 204.280,212.513 204.000,213.858 204.000 C 215.183 204.000,215.875 203.734,216.908 202.827 C 217.642 202.182,218.710 201.538,219.279 201.395 C 219.849 201.252,220.829 200.633,221.458 200.020 C 222.086 199.407,223.140 198.787,223.800 198.642 C 224.545 198.479,225.258 197.928,225.681 197.190 C 226.076 196.501,226.696 196.000,227.154 196.000 C 227.669 196.000,227.989 195.687,228.072 195.100 C 228.151 194.545,228.696 193.970,229.491 193.600 C 230.472 193.145,230.785 192.741,230.791 191.927 C 230.798 191.056,231.007 190.829,231.900 190.727 C 232.820 190.621,233.021 190.384,233.126 189.285 C 233.231 188.202,233.454 187.929,234.391 187.742 C 235.764 187.467,235.987 186.793,235.995 182.900 C 235.998 181.237,236.171 180.000,236.400 180.000 C 236.620 180.000,236.800 179.730,236.800 179.400 C 236.800 179.070,236.980 178.800,237.200 178.800 C 237.420 178.800,237.603 178.485,237.606 178.100 C 237.611 177.568,237.693 177.527,237.948 177.929 C 238.459 178.735,238.800 175.407,238.800 169.616 L 238.800 164.544 237.400 162.908 C 236.129 161.423,236.000 161.047,236.000 158.810 C 236.000 156.513,235.906 156.257,234.600 155.026 C 233.453 153.944,233.200 153.416,233.200 152.103 C 233.200 150.642,233.094 150.479,232.000 150.260 C 231.051 150.070,230.800 149.811,230.800 149.020 C 230.800 148.319,230.450 147.839,229.628 147.415 C 228.984 147.081,228.350 146.474,228.221 146.065 C 228.091 145.656,227.534 145.116,226.984 144.866 C 226.434 144.615,225.812 143.958,225.602 143.405 C 225.381 142.824,224.903 142.400,224.469 142.400 C 224.056 142.400,223.154 141.860,222.463 141.200 C 221.772 140.540,220.881 140.000,220.482 140.000 C 220.083 140.000,219.146 139.370,218.400 138.600 C 217.271 137.435,216.759 137.200,215.352 137.200 C 214.108 137.200,213.330 136.921,212.405 136.143 C 211.160 135.095,210.122 134.899,202.728 134.318 C 202.138 134.272,201.688 134.046,201.728 133.817 C 201.767 133.588,200.942 133.345,199.893 133.278 C 198.488 133.188,198.013 133.293,198.093 133.678 M286.684 139.200 C 286.799 139.640,287.170 140.000,287.509 140.000 C 288.026 140.000,288.009 139.873,287.400 139.200 C 287.002 138.760,286.631 138.400,286.575 138.400 C 286.520 138.400,286.569 138.760,286.684 139.200 M91.222 173.774 C 90.934 174.121,90.790 175.346,90.859 176.874 C 90.921 178.263,90.828 179.670,90.651 180.000 C 90.475 180.330,90.702 180.150,91.156 179.600 C 91.808 178.811,91.984 178.030,91.991 175.900 C 92.001 173.013,91.956 172.889,91.222 173.774 M235.500 189.487 C 234.515 190.579,234.617 190.801,236.100 190.794 C 236.815 190.791,237.196 190.656,236.946 190.494 C 236.697 190.332,236.427 189.865,236.346 189.456 C 236.205 188.738,236.175 188.739,235.500 189.487 M164.267 190.667 C 163.791 191.143,163.984 191.908,164.645 192.162 C 165.120 192.344,165.224 192.239,165.040 191.760 C 164.864 191.301,164.962 191.177,165.375 191.335 C 165.767 191.485,165.886 191.369,165.737 190.980 C 165.505 190.374,164.725 190.208,164.267 190.667 M249.467 197.067 C 249.320 197.213,249.200 197.663,249.200 198.067 C 249.200 198.852,250.562 199.108,250.997 198.405 C 251.134 198.184,250.985 198.107,250.661 198.232 C 250.342 198.354,249.945 198.234,249.779 197.965 C 249.586 197.654,249.643 197.579,249.934 197.759 C 250.229 197.942,250.307 197.822,250.153 197.421 C 249.883 196.719,249.838 196.695,249.467 197.067 M249.206 223.100 C 249.210 223.532,249.325 223.631,249.506 223.360 C 249.668 223.118,250.070 222.817,250.400 222.692 C 250.801 222.539,250.701 222.453,250.100 222.432 C 249.495 222.410,249.202 222.630,249.206 223.100 M90.800 230.751 C 90.800 230.944,91.070 231.326,91.400 231.600 C 91.901 232.016,92.000 231.958,92.000 231.249 C 92.000 230.761,91.745 230.400,91.400 230.400 C 91.070 230.400,90.800 230.558,90.800 230.751 M112.243 246.969 C 112.597 247.890,113.543 248.068,113.308 247.170 C 113.197 246.747,112.863 246.400,112.566 246.400 C 112.263 246.400,112.121 246.650,112.243 246.969 M205.867 251.067 C 205.383 251.550,205.589 252.710,206.200 252.945 C 206.650 253.117,206.800 252.879,206.800 251.987 C 206.800 250.852,206.438 250.495,205.867 251.067 M188.000 257.849 C 188.000 258.380,188.109 258.408,188.600 258.000 C 188.930 257.726,189.200 257.434,189.200 257.351 C 189.200 257.268,188.930 257.200,188.600 257.200 C 188.270 257.200,188.000 257.492,188.000 257.849 M149.600 268.357 C 149.600 268.554,149.870 268.818,150.200 268.945 C 150.565 269.085,150.800 268.945,150.800 268.587 C 150.800 268.264,150.530 268.000,150.200 268.000 C 149.870 268.000,149.600 268.161,149.600 268.357 " stroke="none" fill="#fbc443" fill-rule="evenodd"></path><path id="path3" d="M177.600 67.890 C 177.270 68.015,176.858 68.358,176.684 68.652 C 176.510 68.946,175.340 69.483,174.084 69.845 C 172.828 70.207,171.663 70.738,171.495 71.025 C 171.328 71.311,170.158 71.932,168.895 72.404 C 167.633 72.875,166.316 73.517,165.969 73.830 C 165.375 74.366,163.462 75.445,159.800 77.312 C 158.920 77.760,157.750 78.539,157.200 79.042 C 156.650 79.546,155.556 80.227,154.768 80.556 C 153.981 80.885,153.094 81.446,152.797 81.803 C 152.501 82.160,151.705 82.736,151.029 83.082 C 150.353 83.428,149.212 84.223,148.493 84.850 C 147.774 85.476,146.770 86.093,146.262 86.220 C 145.562 86.396,145.220 86.912,144.852 88.349 C 144.192 90.925,144.453 91.360,147.535 92.817 C 163.589 100.404,180.010 90.018,180.921 71.700 L 181.124 67.600 179.662 67.632 C 178.858 67.649,177.930 67.765,177.600 67.890 M75.500 282.832 C 73.818 283.812,76.225 284.550,78.002 283.599 C 78.503 283.331,78.834 283.331,78.999 283.599 C 79.136 283.820,79.444 284.000,79.686 284.000 C 79.927 284.000,79.798 283.640,79.400 283.200 C 78.616 282.333,76.671 282.150,75.500 282.832 M88.600 283.200 C 88.202 283.640,88.073 284.000,88.314 284.000 C 88.556 284.000,88.864 283.820,89.000 283.600 C 89.343 283.045,91.738 283.098,92.313 283.673 C 92.574 283.934,92.924 284.009,93.093 283.841 C 93.590 283.343,91.949 282.400,90.586 282.400 C 89.832 282.400,89.032 282.722,88.600 283.200 M85.902 284.847 C 84.762 285.485,84.320 286.629,85.213 286.629 C 85.625 286.629,85.880 286.547,85.780 286.447 C 85.680 286.347,85.898 285.934,86.263 285.530 C 87.055 284.656,86.869 284.306,85.902 284.847 M94.800 285.167 C 94.800 285.405,94.980 285.600,95.200 285.600 C 95.420 285.600,95.600 285.791,95.600 286.024 C 95.600 286.257,95.375 286.318,95.100 286.159 C 94.825 286.001,94.739 286.024,94.908 286.211 C 95.646 287.022,96.839 286.711,96.270 285.855 C 95.653 284.925,94.800 284.526,94.800 285.167 M127.966 286.700 C 127.272 288.059,126.725 314.098,127.400 313.673 C 127.620 313.534,128.070 313.416,128.400 313.411 C 128.920 313.401,129.001 311.736,129.009 300.900 L 129.017 288.400 128.903 300.800 C 128.831 308.603,128.642 313.200,128.394 313.200 C 127.747 313.200,127.911 288.948,128.570 287.100 C 129.192 285.357,128.789 285.090,127.966 286.700 M268.178 298.200 C 268.179 305.240,268.233 308.064,268.299 304.475 C 268.366 300.886,268.366 295.126,268.299 291.675 C 268.233 288.224,268.178 291.160,268.178 298.200 M97.200 288.567 C 97.200 288.915,97.485 289.200,97.833 289.200 C 98.540 289.200,98.417 288.339,97.675 288.092 C 97.414 288.005,97.200 288.218,97.200 288.567 M287.276 289.966 C 287.368 290.277,287.884 290.806,288.422 291.141 C 289.180 291.614,289.265 291.621,288.800 291.175 C 288.470 290.859,287.954 290.330,287.654 290.000 C 287.215 289.517,287.141 289.510,287.276 289.966 M81.832 300.822 C 81.409 301.248,81.150 301.683,81.256 301.789 C 81.524 302.057,83.200 300.839,83.200 300.377 C 83.200 299.798,82.679 299.968,81.832 300.822 M362.000 325.132 C 361.094 326.015,361.083 326.064,361.878 325.651 C 362.360 325.401,362.873 325.005,363.018 324.771 C 363.510 323.975,363.002 324.155,362.000 325.132 M114.000 329.538 C 114.000 330.585,115.814 331.462,116.153 330.579 C 116.284 330.238,116.233 330.056,116.041 330.175 C 115.848 330.294,115.468 330.123,115.196 329.796 C 114.656 329.144,114.000 329.003,114.000 329.538 M188.000 329.824 C 188.000 330.167,187.822 330.337,187.605 330.203 C 187.376 330.061,187.312 330.227,187.454 330.596 C 187.589 330.947,187.724 331.182,187.754 331.117 C 187.784 331.053,188.150 330.595,188.566 330.100 C 189.239 329.301,189.250 329.200,188.662 329.200 C 188.298 329.200,188.000 329.481,188.000 329.824 M273.962 329.972 C 272.709 331.355,272.614 331.727,273.652 331.180 C 274.609 330.675,275.183 330.051,275.194 329.500 C 275.204 329.006,274.641 329.221,273.962 329.972 M280.000 329.297 C 280.000 329.381,280.510 329.939,281.133 330.536 C 281.914 331.284,282.267 331.437,282.267 331.029 C 282.267 330.702,282.105 330.535,281.907 330.658 C 281.709 330.780,281.604 330.547,281.673 330.140 C 281.761 329.628,281.523 329.361,280.900 329.272 C 280.405 329.202,280.000 329.213,280.000 329.297 M273.687 338.425 C 274.065 338.645,274.555 339.135,274.775 339.513 C 274.995 339.891,275.181 339.988,275.188 339.729 C 275.195 339.469,274.917 338.974,274.571 338.629 C 274.226 338.283,273.731 338.005,273.471 338.012 C 273.212 338.019,273.309 338.205,273.687 338.425 M93.000 341.600 C 93.398 342.040,93.792 342.400,93.876 342.400 C 93.960 342.400,93.835 342.040,93.600 341.600 C 93.365 341.160,92.970 340.800,92.724 340.800 C 92.478 340.800,92.602 341.160,93.000 341.600 M286.900 341.357 C 287.636 341.915,287.888 342.625,287.200 342.200 C 286.980 342.064,286.800 342.163,286.800 342.419 C 286.800 342.686,287.079 342.779,287.451 342.636 C 287.809 342.499,288.387 342.614,288.735 342.893 C 289.084 343.172,288.959 342.815,288.457 342.100 C 287.956 341.385,287.243 340.806,286.873 340.813 C 286.255 340.824,286.258 340.869,286.900 341.357 M348.000 343.033 C 348.000 343.382,348.214 343.595,348.475 343.508 C 349.217 343.261,349.340 342.400,348.633 342.400 C 348.285 342.400,348.000 342.685,348.000 343.033 M347.154 345.700 C 346.894 346.195,346.482 346.732,346.240 346.894 C 345.933 347.099,345.948 347.190,346.290 347.194 C 346.559 347.197,347.059 346.660,347.400 346.000 C 347.741 345.340,347.932 344.800,347.824 344.800 C 347.716 344.800,347.415 345.205,347.154 345.700 M240.705 348.829 C 239.685 349.423,239.087 350.667,239.822 350.667 C 240.140 350.667,240.400 350.427,240.400 350.133 C 240.400 349.840,240.591 349.600,240.824 349.600 C 241.057 349.600,241.118 349.825,240.959 350.100 C 240.801 350.375,240.824 350.461,241.011 350.292 C 241.260 350.065,241.650 348.333,241.433 348.412 C 241.415 348.419,241.087 348.607,240.705 348.829 M329.994 349.308 C 330.541 349.878,331.054 350.279,331.134 350.199 C 331.396 349.937,330.775 349.214,329.878 348.737 C 329.068 348.306,329.077 348.350,329.994 349.308 M175.611 351.787 C 175.343 352.109,175.217 352.604,175.331 352.887 C 175.463 353.217,175.548 353.158,175.568 352.720 C 175.586 352.346,175.915 351.856,176.300 351.632 C 176.685 351.408,176.797 351.219,176.549 351.212 C 176.301 351.205,175.879 351.464,175.611 351.787 M330.990 355.216 C 330.848 355.445,330.388 355.523,329.966 355.389 C 329.338 355.190,329.200 355.344,329.200 356.248 L 329.200 357.350 330.400 356.200 C 331.060 355.568,331.600 354.994,331.600 354.925 C 331.600 354.649,331.232 354.825,330.990 355.216 M98.800 359.800 C 98.800 361.249,99.332 361.675,99.757 360.567 C 100.188 359.444,100.016 358.400,99.400 358.400 C 98.981 358.400,98.800 358.822,98.800 359.800 M211.744 362.000 C 211.744 364.090,211.812 364.945,211.894 363.900 C 211.976 362.855,211.976 361.145,211.894 360.100 C 211.812 359.055,211.744 359.910,211.744 362.000 M317.802 367.202 C 318.202 367.644,318.615 367.918,318.721 367.812 C 318.990 367.543,317.992 366.400,317.489 366.400 C 317.262 366.400,317.403 366.761,317.802 367.202 " stroke="none" fill="#f1bcc2" fill-rule="evenodd"></path><path id="path4" d="M195.800 56.926 C 193.895 57.690,190.655 59.199,190.000 59.628 C 189.670 59.844,188.140 60.647,186.600 61.413 C 185.060 62.178,181.640 63.977,179.000 65.410 C 176.360 66.843,173.390 68.394,172.400 68.856 C 171.410 69.318,170.240 70.005,169.800 70.383 C 169.360 70.761,168.370 71.309,167.600 71.600 C 166.830 71.891,165.840 72.443,165.400 72.826 C 164.960 73.210,163.909 73.808,163.064 74.156 C 162.220 74.504,160.991 75.242,160.334 75.795 C 159.676 76.348,158.896 76.800,158.600 76.800 C 158.304 76.800,157.553 77.225,156.931 77.745 C 156.309 78.265,154.990 79.100,154.000 79.600 C 153.010 80.100,151.691 80.935,151.069 81.455 C 150.447 81.975,149.760 82.400,149.541 82.400 C 147.084 82.400,141.862 88.351,141.222 91.880 C 140.733 94.577,141.871 114.946,142.563 115.876 C 142.594 115.919,144.768 116.435,147.395 117.024 C 159.344 119.705,173.160 117.310,182.648 110.915 C 184.941 109.370,187.353 108.286,187.709 108.642 C 188.063 108.997,188.818 104.093,189.403 97.625 C 191.051 79.427,192.663 76.444,200.867 76.410 C 203.983 76.396,204.448 76.177,203.977 74.940 C 203.770 74.394,203.600 72.655,203.600 71.074 C 203.599 66.764,201.631 57.769,200.499 56.900 C 199.687 56.277,197.387 56.290,195.800 56.926 M180.921 71.700 C 180.010 90.018,163.589 100.404,147.535 92.817 C 144.453 91.360,144.192 90.925,144.852 88.349 C 145.220 86.912,145.562 86.396,146.262 86.220 C 146.770 86.093,147.774 85.476,148.493 84.850 C 149.212 84.223,150.353 83.428,151.029 83.082 C 151.705 82.736,152.501 82.160,152.797 81.803 C 153.094 81.446,153.981 80.885,154.768 80.556 C 155.556 80.227,156.650 79.546,157.200 79.042 C 157.750 78.539,158.920 77.760,159.800 77.312 C 163.462 75.445,165.375 74.366,165.969 73.830 C 166.316 73.517,167.633 72.875,168.895 72.404 C 170.158 71.932,171.328 71.311,171.495 71.025 C 171.663 70.738,172.828 70.207,174.084 69.845 C 175.340 69.483,176.510 68.946,176.684 68.652 C 177.104 67.941,177.897 67.670,179.662 67.632 L 181.124 67.600 180.921 71.700 " stroke="none" fill="#e16877" fill-rule="evenodd"></path></g></svg>